<?xml version="1.0" encoding="UTF-8" standalone="no"?>
<svg
   viewBox="0 0 734.56145 109.10533"
   height="109.10533"
   width="734.56146"
   xml:space="preserve"
   id="svg2"
   version="1.1"
   sodipodi:docname="Eurovia-Logo.svg"
   inkscape:version="1.4 (86a8ad7, 2024-10-11)"
   xmlns:inkscape="http://www.inkscape.org/namespaces/inkscape"
   xmlns:sodipodi="http://sodipodi.sourceforge.net/DTD/sodipodi-0.dtd"
   xmlns="http://www.w3.org/2000/svg"
   xmlns:svg="http://www.w3.org/2000/svg"
   xmlns:rdf="http://www.w3.org/1999/02/22-rdf-syntax-ns#"
   xmlns:cc="http://creativecommons.org/ns#"
   xmlns:dc="http://purl.org/dc/elements/1.1/"><sodipodi:namedview
     id="namedview1"
     pagecolor="#ffffff"
     bordercolor="#000000"
     borderopacity="0.25"
     inkscape:showpageshadow="2"
     inkscape:pageopacity="0.0"
     inkscape:pagecheckerboard="0"
     inkscape:deskcolor="#d1d1d1"
     inkscape:zoom="2.3018734"
     inkscape:cx="359.4898"
     inkscape:cy="67.119244"
     inkscape:window-width="3840"
     inkscape:window-height="2066"
     inkscape:window-x="1609"
     inkscape:window-y="-11"
     inkscape:window-maximized="1"
     inkscape:current-layer="svg2" /><metadata
     id="metadata8"><rdf:RDF><cc:Work
         rdf:about=""><dc:format>image/svg+xml</dc:format><dc:type
           rdf:resource="http://purl.org/dc/dcmitype/StillImage" /></cc:Work></rdf:RDF></metadata><defs
     id="defs6"><clipPath
       id="clipPath26"
       clipPathUnits="userSpaceOnUse"><path
         id="path24"
         d="M 0,595.276 H 841.89 V 0 H 0 Z" /></clipPath></defs><g
     transform="matrix(1.3333333,0,0,-1.3333333,-201.47813,463.81252)"
     id="g10"><g
       transform="translate(663.8867,291.2772)"
       id="g12"><path
         id="path14"
         style="fill:#ed1b2f;fill-opacity:1;fill-rule:nonzero;stroke:none"
         d="m 0,0 10.003,-24.285 h 28.14 L 27.499,0 Z" /></g><g
       transform="translate(176.6006,296.8982)"
       id="g16"><path
         id="path18"
         style="fill:#004b96;fill-opacity:1;fill-rule:nonzero;stroke:none"
         d="M 0,0 H 39.249 V 20.618 H 0 v 6.639 h 44.319 v 22.787 h -69.811 v -79.95 H 45.236 V -7.163 H 0 Z" /></g><g
       id="g20"><g
         clip-path="url(#clipPath26)"
         id="g22"><g
           transform="translate(283.3947,303.4922)"
           id="g28"><path
             id="path30"
             style="fill:#004b96;fill-opacity:1;fill-rule:nonzero;stroke:none"
             d="m 0,0 c 0,-2.416 -0.316,-4.539 -0.938,-6.309 -0.548,-1.556 -1.35,-2.867 -2.388,-3.894 -1.042,-1.034 -2.406,-1.846 -4.052,-2.413 -1.867,-0.645 -4.133,-0.972 -6.734,-0.972 -2.627,0 -4.897,0.326 -6.747,0.968 -1.635,0.568 -2.994,1.381 -4.04,2.417 -1.037,1.027 -1.839,2.338 -2.387,3.894 -0.622,1.77 -0.938,3.893 -0.938,6.309 V 43.45 H -53.716 V -1.661 c 0,-5.23 0.913,-10.094 2.713,-14.457 1.838,-4.454 4.551,-8.333 8.064,-11.526 3.464,-3.149 7.714,-5.598 12.633,-7.277 4.769,-1.628 10.217,-2.454 16.194,-2.454 5.977,0 11.425,0.826 16.194,2.454 4.919,1.679 9.169,4.128 12.632,7.277 3.514,3.193 6.227,7.072 8.065,11.526 1.8,4.363 2.713,9.227 2.713,14.457 V 43.45 H 0 Z" /></g><g
           transform="translate(367.4334,312.1973)"
           id="g32"><path
             id="path34"
             style="fill:#004b96;fill-opacity:1;fill-rule:nonzero;stroke:none"
             d="M 0,0 C -0.728,-0.608 -1.716,-1.109 -2.938,-1.489 -4.335,-1.923 -6.07,-2.144 -8.093,-2.144 h -15.423 v 13.189 h 15.423 c 3.792,0 6.713,-0.661 8.225,-1.863 C 0.99,8.501 1.867,7.458 1.867,4.887 1.867,3.71 1.684,2.671 1.323,1.797 1.03,1.087 0.597,0.499 0,0 m 32.838,-45.206 -17.34,25.502 c 0.639,0.421 1.253,0.861 1.841,1.32 2.413,1.882 4.454,4.076 6.065,6.52 1.605,2.436 2.811,5.133 3.582,8.015 0.74,2.767 1.115,5.707 1.115,8.736 0,4.515 -0.775,8.665 -2.305,12.336 -1.606,3.851 -4.079,7.159 -7.352,9.83 -3.142,2.564 -7.065,4.525 -11.66,5.831 -4.346,1.235 -9.469,1.861 -15.227,1.861 h -40.565 v -79.951 h 25.492 v 19.438 l 12.425,-0.026 12.853,-19.412 z" /></g><g
           transform="translate(462.8253,300.0374)"
           id="g36"><path
             id="path38"
             style="fill:#004b96;fill-opacity:1;fill-rule:nonzero;stroke:none"
             d="m 0,0 c -0.937,-2.066 -2.234,-3.845 -3.858,-5.289 -1.662,-1.48 -3.692,-2.646 -6.032,-3.467 -2.441,-0.856 -5.168,-1.289 -8.107,-1.289 -2.938,0 -5.665,0.433 -8.105,1.29 -2.347,0.821 -4.388,1.992 -6.07,3.48 -1.622,1.433 -2.912,3.201 -3.833,5.254 -0.923,2.059 -1.391,4.464 -1.391,7.147 0,2.676 0.465,5.059 1.382,7.083 0.909,2.005 2.18,3.717 3.779,5.089 1.669,1.433 3.701,2.552 6.041,3.329 2.467,0.818 5.225,1.233 8.197,1.233 2.972,0 5.731,-0.415 8.199,-1.233 2.333,-0.774 4.353,-1.89 6.005,-3.317 1.599,-1.382 2.878,-3.105 3.803,-5.123 C 0.935,12.168 1.404,9.792 1.404,7.126 1.404,4.452 0.931,2.055 0,0 m 26.895,7.126 c 0,5.947 -1.122,11.504 -3.337,16.514 -2.22,5.02 -5.386,9.397 -9.41,13.012 l -10e-4,10e-4 c -3.982,3.573 -8.795,6.367 -14.305,8.305 -5.408,1.9 -11.409,2.864 -17.839,2.864 -6.461,0 -12.472,-0.964 -17.864,-2.866 -5.496,-1.937 -10.3,-4.731 -14.278,-8.304 -4.025,-3.613 -7.192,-7.991 -9.411,-13.012 -2.215,-5.008 -3.338,-10.565 -3.338,-16.514 0,-5.971 1.12,-11.557 3.329,-16.602 2.214,-5.06 5.373,-9.48 9.389,-13.137 3.974,-3.619 8.773,-6.461 14.264,-8.447 5.408,-1.955 11.433,-2.947 17.909,-2.947 6.445,0 12.462,0.991 17.883,2.945 5.506,1.985 10.314,4.828 14.292,8.449 4.016,3.658 7.175,8.078 9.388,13.137 2.209,5.048 3.329,10.634 3.329,16.602" /></g><g
           transform="translate(528.8337,304.3017)"
           id="g40"><path
             id="path42"
             style="fill:#004b96;fill-opacity:1;fill-rule:nonzero;stroke:none"
             d="m 0,0 -17.564,42.64 h -28.139 l 35.039,-79.95 H 10.664 L 45.703,42.64 H 17.564 Z" /></g><path
           id="path44"
           style="fill:#004b96;fill-opacity:1;fill-rule:nonzero;stroke:none"
           d="m 579.747,266.992 h 25.579 v 79.95 h -25.579 z" /><g
           transform="translate(666.9904,346.9419)"
           id="g46"><path
             id="path48"
             style="fill:#004b96;fill-opacity:1;fill-rule:nonzero;stroke:none"
             d="m 0,0 h -21.329 l -35.039,-79.95 h 28.14 l 17.564,42.64 h 27.015 z" /></g></g></g></g></svg>
