<?xml version="1.0" encoding="UTF-8" standalone="no"?>
<svg
   xmlns:dc="http://purl.org/dc/elements/1.1/"
   xmlns:cc="http://creativecommons.org/ns#"
   xmlns:rdf="http://www.w3.org/1999/02/22-rdf-syntax-ns#"
   xmlns:svg="http://www.w3.org/2000/svg"
   xmlns="http://www.w3.org/2000/svg"
   viewBox="0 0 755.90668 245.66667"
   height="245.66667"
   width="755.90668"
   xml:space="preserve"
   id="svg2"
   version="1.1"><metadata
     id="metadata8"><rdf:RDF><cc:Work
         rdf:about=""><dc:format>image/svg+xml</dc:format><dc:type
           rdf:resource="http://purl.org/dc/dcmitype/StillImage" /></cc:Work></rdf:RDF></metadata><defs
     id="defs6" /><g
     transform="matrix(1.3333333,0,0,-1.3333333,0,245.66667)"
     id="g10"><g
       transform="scale(0.1)"
       id="g12"><path
         id="path14"
         style="fill:#f7980f;fill-opacity:1;fill-rule:nonzero;stroke:none"
         d="M 5669.29,0 H 0 V 1842.52 H 5669.29 V 0" /><path
         id="path16"
         style="fill:#211c1d;fill-opacity:1;fill-rule:nonzero;stroke:none"
         d="m 883.984,573.352 -1.277,0.136 -0.519,-1.156 c 0,0 -2.188,-5.773 -2.188,-5.652 l -1.859,-3.7 c 0.16,0 -4.453,-9.289 -4.453,-9.289 0,0.039 -4.125,-7.832 -4.125,-7.832 l -0.84,-1.679 1.769,-0.61 7.602,-2.379 1.258,-0.382 0.648,0.929 0.961,1.832 c 0.109,0 2.676,5.121 2.676,5.121 l 6.48,13.5 c 0.063,0 3.164,7.668 3.164,7.668 l 0.782,1.743 -1.907,0.359 z m 20.207,58.269 -3.296,0.289 -1.457,0.07 -0.333,-1.289 -2.214,-11.75 c 0,0.09 -3.157,-13.101 -3.157,-13.101 0.051,0.14 -1.179,-3.852 -1.179,-3.852 l -0.598,-1.597 1.777,-0.422 8.051,-1.258 1.367,-0.242 0.43,1.363 0.941,3.418 1.125,4.238 c 0,0.071 2.149,9.121 2.149,9.121 0,0.141 2.469,12.762 2.469,12.762 l 0.316,1.809 -1.656,0.218 z m -7.421,125.559 1.699,-9.442 1.578,-9.957 0.918,-6.429 0.18,-1.512 1.449,0.148 1.597,0.153 4.735,0.179 c 0.148,0 1.656,0.129 1.656,0.129 l 1.711,0.153 -0.25,1.57 -0.898,7.238 -0.711,4.649 -0.871,5.531 c 0,0.039 -1.766,9.699 -1.766,9.699 l -0.637,3.231 -0.301,1.5 -2.976,-0.489 -6.473,-1.16 -1.582,-0.301 0.305,-1.57 z m 11.964,-64.41 c 0.063,0 -3.441,-0.211 -3.441,-0.211 l -1.461,-0.149 v -10.48 l -0.25,-12.34 c 0,0.18 -0.91,-11.281 -0.91,-11.281 l -0.129,-1.598 1.52,-0.07 4.734,-0.391 c -0.063,0 3.312,-0.379 3.312,-0.379 l 1.704,-0.199 0.058,1.648 0.77,11.789 c 0,0.102 0.386,12.653 0.386,12.653 v 9.847 1.602 l -1.726,-0.141 z m 345.026,64.199 -21.3,12.211 -55.75,31.968 55.93,43.082 c -0.06,0 43.35,33.391 55.02,42.313 -3.89,-44.691 -15.22,-88.324 -33.9,-129.574 z m -23.4,-44.16 c -45.72,-74.868 -116.08,-133.848 -198.03,-166.75 l -0.54,7.523 c 0,0.109 -1.62,15.066 -1.62,15.066 l -2.03,14.672 -2.33,14.301 c 0,0.117 -2.92,14.238 -2.92,14.238 0,0.09 -3.15,13.672 -3.15,13.672 l -3.58,13.278 -3.86,12.98 c -0.04,0 -4.08,12.543 -4.08,12.543 l -4.39,12.117 -4.541,11.68 -4.715,11.293 c 0,0.047 -4.613,10.816 -4.613,10.816 l -4.934,10.543 -4.836,9.821 -4.914,9.527 c -0.058,0 -4.894,8.883 -4.894,8.883 l -4.793,8.527 -4.727,8 -4.734,7.543 -4.434,6.859 0.121,-0.25 -0.421,1.039 -0.071,0.09 -0.129,0.211 -3.472,5.258 c -0.153,0 -4.129,5.813 -4.129,5.813 l -3.625,5.308 c -0.051,0 -3.399,4.719 -3.399,4.719 -0.156,0.082 -3.242,4.121 -3.242,4.121 l -0.312,0.422 16.582,-3.531 281.792,-59.301 14.49,-3.07 c -4.62,-9.348 -9.8,-18.782 -15.52,-27.961 z M 949.598,522.672 c -13.184,-2.434 -26.797,-3.973 -40.801,-5 l -0.551,-0.063 c -1.387,-0.168 -2.785,-0.23 -4.183,-0.23 -8.235,-0.43 -16.403,-0.797 -24.391,-0.797 -17.231,0 -34.852,1.09 -52.199,3.25 -25.731,3.316 -51.258,9.039 -76.172,17.18 -10.746,3.476 -21.824,7.668 -33.539,12.636 l 8.172,7.141 13.851,13.141 c 0.16,0 12.137,12.121 12.137,12.121 l 0.93,0.847 11.964,12.911 11.157,12.652 c 0,0.148 10.297,12.559 10.297,12.559 0.082,0.082 9.507,12.371 9.507,12.371 0.102,0 8.883,12.3 8.883,12.3 0.051,0 7.988,11.899 7.988,11.899 0.051,0 7.442,11.691 7.442,11.691 0,0.071 6.504,11.559 6.504,11.559 l 1.996,3.59 3.957,7.5 5.441,10.859 c 0,0.102 4.797,10.383 4.797,10.383 0,0.129 4.184,10.066 4.184,10.066 0,0.192 3.804,9.871 3.804,9.871 0.063,0.032 3.149,9.45 3.149,9.45 l 3.027,8.761 c 0,0.121 2.266,8.578 2.266,8.578 l 2.015,7.954 c 0,0.039 1.61,7.398 1.61,7.398 0,0.16 1.457,7.059 1.457,7.059 0,0.043 0.937,6.363 0.937,6.363 0,0.129 0.942,5.816 0.942,5.816 0,0.114 0.519,5.332 0.519,5.332 l 0.36,4.571 c 0,0.121 0.281,4.109 0.281,4.109 l 0.117,3.371 0.051,2.551 0.129,0.066 -0.129,0.141 -0.051,0.793 12.027,2.547 0.391,-0.938 c 0,-0.191 0.129,-0.402 0.129,-0.402 l 0.551,-1.359 c 0,0.07 0.906,-2.188 0.906,-2.188 l 1.121,-3.16 c 0,0.09 1.406,-4.113 1.406,-4.113 l 1.629,-4.77 1.098,-3.57 0.43,-1.278 1.269,0.309 8.059,1.27 1.699,0.402 -0.508,1.648 -1.371,4.571 -1.637,4.949 -1.609,4.301 c 0,0 -0.316,0.73 -0.648,1.5 l 11.437,-2.301 4.734,-0.852 7.352,-1.769 0.637,-0.629 c -0.067,0.058 1.269,-1.641 1.269,-1.641 l 1.887,-2.187 2.102,-2.742 2.566,-3.52 3.137,-3.918 3.406,-4.684 c -0.063,0.122 3.625,-5.097 3.625,-5.097 -0.133,0.16 3.844,-5.68 3.844,-5.68 0,0.098 4.195,-6.16 4.195,-6.16 -0.078,0 4.215,-6.82 4.215,-6.82 0.07,-0.102 1.75,-2.809 1.75,-2.809 l 2.644,-4.48 4.707,-7.77 4.602,-8.332 4.894,-8.789 4.864,-9.223 c -0.059,0.043 4.797,-9.859 4.797,-9.859 l 4.593,-10.18 4.817,-10.64 c 0,0.14 4.531,-11.02 4.531,-11.02 -0.051,0 4.328,-11.43 4.328,-11.43 0,0.102 4.223,-11.871 4.223,-11.871 l 4.069,-12.199 3.67,-12.668 c 0,0.098 3.56,-13.031 3.56,-13.031 0,0.121 3.09,-13.391 3.09,-13.391 0,0.09 2.87,-13.64 2.87,-13.64 l 2.34,-14.028 2.02,-14.492 c -0.11,0.141 1.46,-14.598 1.46,-14.598 0,0.079 0.49,-8.211 0.61,-11.011 -23.689,-8.59 -47.76,-15.039 -71.642,-19.008 z m -280,51.348 c -4.184,2.558 -8.41,5.019 -12.535,7.671 l -3.313,2.231 c -1.25,0.769 -2.512,1.578 -3.828,2.598 0.019,-0.149 -0.91,0.531 -0.91,0.531 -1.078,0.789 -2.246,1.519 -3.524,2.398 l 5.153,35.961 7.179,49.391 12.606,87.269 c 0,0 1.469,9.719 1.859,12.309 l 78.778,16.641 76.55,16.019 28.696,6.043 c 0,-0.48 0,-0.91 0,-0.91 0,-0.09 0,-3.192 0,-3.192 0,0.059 -0.332,-3.742 -0.332,-3.742 0,0.071 -0.36,-4.199 -0.36,-4.199 0,0.109 -0.597,-5.129 -0.597,-5.129 l -0.821,-5.621 c 0,0.07 -0.926,-5.98 -0.926,-5.98 0,0.043 -1.289,-6.68 -1.289,-6.68 l -1.629,-7.238 c 0.059,0 -1.917,-7.743 -1.917,-7.743 0.082,0.122 -2.348,-8.046 -2.348,-8.046 l -2.637,-8.641 c 0,0.109 -3.195,-9.07 -3.195,-9.07 0,0.121 -3.586,-9.422 -3.586,-9.422 0,0.121 -4.184,-9.809 -4.184,-9.809 0,0.09 -4.558,-10.101 -4.558,-10.101 l -2.094,-4.258 -3.148,-6.332 c 0,0.051 -5.915,-10.77 -5.915,-10.77 L 810.363,675 c 0.098,0 -7.113,-11.418 -7.113,-11.418 0,0.047 -7.84,-11.742 -7.84,-11.742 l -8.531,-11.91 c 0,0.121 -9.328,-11.95 -9.328,-11.95 l -10.028,-12.371 c 0,0.082 -10.925,-12.48 -10.925,-12.48 l -6.993,-7.32 -4.925,-5.239 c 0.05,0 -12.672,-12.859 -12.672,-12.859 0.066,0.09 -13.61,-12.781 -13.61,-12.781 0.043,0.121 -9.777,-8.481 -11.785,-10.41 -12.246,5.8 -24.789,12.25 -37.015,19.5 z m -61.567,79.789 -45.375,46.07 44.547,8.172 42.211,7.828 3.086,0.68 -5.016,-34.797 c 0,0 -6.824,-46.723 -8.601,-59.211 z m 27.18,-56.918 c -9.633,7.121 -18.852,14.488 -27.309,21.828 -16.222,14.25 -31.234,29.652 -44.488,45.613 l -0.16,0.578 -0.77,5.27 -2.289,16.32 45.61,-46.059 31.121,-31.589 z m -78.457,113.23 -4.606,31.457 -1.007,7.332 10.164,2.078 c 0,0 35.781,7.434 39.125,8.223 l 5.554,-3.82 42.032,-28.532 c -4.137,-0.828 -41.356,-7.629 -41.356,-7.629 l -45.941,-8.371 z m -10.16,70.539 -2.559,17.11 5.727,-3.93 c 0,0 6.832,-4.551 9.218,-6.149 l -9.101,-5.179 z m -8.059,-83.32 c -2.078,3.101 -4.129,6.148 -5.957,8.922 -6.59,10.297 -12.973,21.66 -19.625,34.508 l 18.699,3.949 5.864,1.242 2.734,0.559 8.813,-61.891 0.417,-2.699 c -3.347,4.64 -7.031,9.679 -10.945,15.41 z m -67.191,189.203 54.922,-42.23 3.578,-24.864 5.89,-41.82 c 0,-0.078 0.211,-1.777 0.403,-2.867 l -5.574,-3.364 c 0,0 -21.305,-12.109 -25.34,-14.429 -18.7,41.25 -30.067,84.883 -33.879,129.574 z m 111,-85.395 -12.699,-7.398 -7.797,5.449 -10.34,7.051 -9.539,6.43 -3.196,21.808 v 0.102 c 3.895,-3.078 10.856,-8.418 10.856,-8.418 l 10.449,-7.883 c 0,0 17.719,-13.707 22.266,-17.141 z m 78.273,-29.289 -5.332,-36.589 -5.344,3.609 -34.32,23.562 33.84,7.079 7.113,1.48 z m -190.504,166.7 h 818.797 c 0.13,-3.825 0.24,-7.5 0.3,-11.395 l 0.1,-1.406 H 469.664 c 0.152,4.812 0.199,8.976 0.449,12.801 z m 1.649,23.324 h 815.418 c 0.52,-4.274 0.85,-8.711 1.16,-12.977 H 470.633 c 0.32,4.266 0.711,8.703 1.129,12.977 z m 60.816,174.347 c 1.289,2.07 2.649,4.09 3.988,6.07 l 1.969,3.07 c 4.133,6.26 8.688,12.28 12.973,18.17 l 0.347,0.39 0.5,0.63 c 3.2,4.05 6.454,8.3 9.821,12.19 4.234,5.07 8.597,10.26 13.191,15.25 l 3.969,1.01 -19.887,-69.01 -10.34,-35.66 -13.375,-46.51 -5.89,-21.06 c 0,0.13 -12.414,-42.786 -14.114,-48.54 h -42.57 c 7.414,58.65 27.445,113.82 59.418,164 z m 73.117,33.79 42.239,-46.53 7.183,-7.95 1.696,-1.83 -1.118,-0.58 -7.281,-3.28 -42.148,-19.12 -45.887,-20.82 -5.566,-2.45 7.601,26.68 27.039,93.79 z m -8.82,43.84 c 3.836,3.51 7.48,6.97 11.027,10 8.989,7.82 18.328,15.16 27.805,22.19 l 4.895,-26.13 -34.067,-8.56 -11.238,-2.9 z m 50.609,-29.65 7.243,-37.58 3.394,-17.9 -0.726,0.75 -7.172,7.95 -42.192,46.62 -12.035,13.13 11.277,2.87 c 0,0 28.407,7.29 35.477,9.09 0.809,-4.26 4.734,-24.93 4.734,-24.93 z m 0.93,60.81 7.281,-3.17 12.606,-5.62 13.035,-5.91 -12.797,-3.27 -12.613,-3.24 c 0,0 -2.668,-0.57 -4.426,-1.09 l -0.859,4.68 c 0,0 -2.399,12.57 -3.516,18.29 z m 2.824,12.09 c 1.91,1.25 3.926,2.52 5.825,3.73 l 12.695,7.87 c 26.012,15.35 53.437,27.77 81.543,36.9 2.429,0.77 5.176,1.62 7.812,2.43 l -9.508,-11.06 c 0,-0.04 -48.453,-56.73 -52.621,-61.6 l -27.437,12.48 -12.606,5.5 -6.66,3.02 z m 175.403,33.8 34.73,-14.75 -34.527,-8.74 -76.449,-19.42 -35.79,-9.23 37.426,43.87 24.891,29.17 z m 0.832,31.8 c 17.347,2.2 34.968,3.24 52.199,3.24 9.566,0 17.289,-0.18 24.391,-0.64 1.398,-0.15 3.097,-0.24 4.734,-0.3 5.016,-0.4 9.957,-0.86 14.891,-1.46 l -15.891,-16.92 -4.824,-5.1 -18.289,-19.42 -5.473,-1.35 h -0.031 -0.149 l -51.101,21.66 -34.27,14.4 c 11.567,2.41 22.926,4.51 33.813,5.89 z m 122.125,-2.62 c 14.582,-2.64 29.136,-6.3 43.668,-10.4 l -43.668,-11.08 -41.102,-10.52 -3.617,-0.85 0.332,0.37 c 0.082,0.1 4.863,5.19 4.863,5.19 l 27.266,29.2 c 4.488,-0.67 8.402,-1.21 12.258,-1.91 z M 668.738,972.23 H 527.445 l 5.383,18.708 5.945,20.942 c 0,0 9.051,31.37 11.508,39.65 1.457,-0.84 9.797,-6.46 9.797,-6.46 l 45.906,-30.85 42.231,-28.115 7.199,-4.925 12.676,-8.418 z m -11.593,21.133 -7.223,4.946 -42.141,28.171 -45.984,30.78 -1.078,0.73 0.937,0.45 c -0.051,-0.13 45.887,20.74 45.887,20.74 l 42.168,19.04 7.23,3.31 5.825,2.58 4.625,-23.48 20.714,-107.989 -18.347,12.285 z m 573.215,136.367 c 29.83,-48.5 48.4,-101.52 55.63,-157.5 H 699.625 L 670.426,1124 657.82,1189.94 c -0.058,0 -3.582,18.11 -4.312,21.84 l 3.156,0.85 12.555,3.13 81.89,20.99 76.543,19.47 52.348,13.28 24.551,6.29 4.703,1.21 41.051,10.31 63.465,16.25 c 90.16,-31.11 167.12,-92.75 216.59,-173.83 z m 2.66,16.78 c -64.22,97.87 -167.29,165.14 -282.832,184.65 -13.618,2.22 -27.559,3.87 -41.114,4.8 -1.726,0.2 -3.426,0.28 -5.011,0.28 -8.235,0.53 -16.352,0.77 -24.391,0.77 -17.422,0 -35.039,-1.05 -52.621,-3.26 -25.797,-3.15 -51.571,-8.74 -76.715,-16.82 -28.77,-9.3 -56.387,-21.48 -82.195,-36.3 -4.536,-2.69 -8.743,-5.12 -12.727,-7.67 -1.109,-0.71 -2.266,-1.48 -3.484,-2.15 -1.129,-0.77 -2.41,-1.61 -3.688,-2.4 -14.543,-9.51 -28.797,-20.14 -42.269,-31.58 -16.52,-14.03 -32.043,-29.34 -46.145,-45.68 -3.234,-3.6 -6.465,-7.54 -10.387,-12.36 -4.003,-5.09 -8.32,-10.63 -13.425,-17.57 -0.071,-0.09 -0.719,-1.21 -0.719,-1.21 -1.777,-2.36 -3.613,-5.01 -5.266,-7.54 -46.715,-68.5 -71.453,-148.48 -71.453,-231.318 0,-82.683 24.738,-162.511 71.453,-231.101 1.653,-2.582 3.489,-5.063 5.266,-7.512 l 0.648,-1.129 c 5.176,-7.039 9.493,-12.57 13.496,-17.582 3.305,-4.058 6.832,-8.246 10.387,-12.367 14.102,-16.25 29.625,-31.551 46.145,-45.711 13.785,-11.59 27.968,-22.121 42.242,-31.379 2.586,-1.75 5.043,-3.351 7.199,-4.699 4.149,-2.481 8.359,-5.223 12.727,-7.582 26.047,-15.02 53.597,-27.149 82.195,-36.442 25.277,-7.976 51.047,-13.699 76.746,-16.898 17.551,-2.07 35.168,-3.23 52.59,-3.23 8.039,0 16.039,0.32 24.519,0.73 1.34,0.191 3.036,0.32 4.735,0.32 13.703,0.989 27.644,2.602 41.262,4.91 115.542,19.399 218.692,86.77 282.832,184.77 44.16,67.129 67.56,144.93 67.56,224.902 0,80.148 -23.4,158.028 -67.56,225.358 z M 879.602,482.48 c -241.938,0 -438.723,196.891 -438.723,438.86 0,241.93 196.785,438.63 438.723,438.63 241.818,0 438.688,-196.7 438.688,-438.63 0,-241.969 -196.87,-438.86 -438.688,-438.86 z m 0,910.04 c -260.336,0 -471.375,-211.06 -471.375,-471.18 0,-260.301 211.039,-471.328 471.375,-471.328 260.298,0 471.268,211.027 471.268,471.328 0,260.12 -210.97,471.18 -471.268,471.18" /><path
         id="path18"
         style="fill:#211c1d;fill-opacity:1;fill-rule:nonzero;stroke:none"
         d="m 1521.54,535.031 h 14.32 c 4.8,0 8.24,0.809 10.23,2.449 2,1.629 2.92,3.809 2.92,6.551 0,2.551 -0.92,4.59 -2.92,6.071 -1.96,1.519 -5.39,2.347 -10.31,2.347 h -14.24 z m 0,33.739 h 12.21 c 4.37,0 7.43,0.73 9.11,2.179 1.71,1.422 2.59,3.43 2.59,6.192 0,2.461 -0.88,4.41 -2.59,5.859 -1.68,1.41 -4.68,2.078 -8.91,2.078 h -12.41 z m -28.31,33.699 h 52.58 c 8.71,0 15.43,-2.059 20.1,-6.11 4.79,-4.129 7.03,-9.238 7.03,-15.277 0,-5.031 -1.64,-9.41 -4.99,-13.031 -2.2,-2.461 -5.52,-4.34 -9.79,-5.789 6.51,-1.473 11.33,-3.961 14.42,-7.614 3.12,-3.628 4.62,-8.136 4.62,-13.597 0,-4.481 -1.1,-8.492 -3.28,-12.063 -2.16,-3.508 -5.21,-6.316 -9.01,-8.418 -2.32,-1.281 -5.87,-2.242 -10.71,-2.8 -6.27,-0.821 -10.44,-1.188 -12.54,-1.188 h -48.43 v 85.887" /><path
         id="path20"
         style="fill:#211c1d;fill-opacity:1;fill-rule:nonzero;stroke:none"
         d="m 1723.92,602.469 h 28.05 v -51.168 c 0,-5.051 -0.8,-9.86 -2.54,-14.332 -1.7,-4.539 -4.25,-8.469 -7.85,-11.879 -3.59,-3.371 -7.35,-5.77 -11.24,-7.078 -5.46,-1.922 -11.97,-2.883 -19.64,-2.883 -4.44,0 -9.27,0.293 -14.48,0.902 -5.24,0.551 -9.61,1.739 -13.17,3.457 -3.45,1.742 -6.71,4.211 -9.63,7.434 -2.83,3.156 -4.85,6.527 -5.93,9.879 -1.78,5.469 -2.58,10.269 -2.58,14.5 v 51.168 h 27.95 v -52.367 c 0,-4.711 1.42,-8.364 4.14,-10.993 2.71,-2.621 6.59,-3.918 11.46,-3.918 4.8,0 8.63,1.258 11.35,3.848 2.71,2.609 4.11,6.25 4.11,11.063 v 52.367" /><path
         id="path22"
         style="fill:#211c1d;fill-opacity:1;fill-rule:nonzero;stroke:none"
         d="m 1847.86,602.469 h 28.16 v -85.887 h -28.16 v 85.887" /><path
         id="path24"
         style="fill:#211c1d;fill-opacity:1;fill-rule:nonzero;stroke:none"
         d="m 1972.31,602.469 h 28.15 v -64.75 h 43.82 v -21.137 h -71.97 v 85.887" /><path
         id="path26"
         style="fill:#211c1d;fill-opacity:1;fill-rule:nonzero;stroke:none"
         d="m 2161.65,583 v -46.879 h 6.93 c 5.81,0 10.01,0.559 12.54,1.801 2.46,1.226 4.38,3.398 5.74,6.488 1.47,3.059 2.11,8.039 2.11,14.891 0,9.109 -1.59,15.379 -4.69,18.679 -3.12,3.34 -8.33,5.02 -15.56,5.02 z m -28.11,19.469 h 41.81 c 8.19,0 14.82,-0.989 19.88,-3.149 5.07,-2.121 9.25,-5.14 12.56,-9.05 3.28,-3.942 5.67,-8.579 7.21,-13.79 1.46,-5.242 2.22,-10.769 2.22,-16.628 0,-9.18 -1.06,-16.301 -3.38,-21.352 -2.17,-5.051 -5.25,-9.34 -9.17,-12.699 -3.91,-3.422 -8.1,-5.75 -12.66,-6.871 -6.15,-1.52 -11.75,-2.348 -16.66,-2.348 h -41.81 v 85.887" /><path
         id="path28"
         style="fill:#211c1d;fill-opacity:1;fill-rule:nonzero;stroke:none"
         d="m 2309.27,602.461 h 28.11 v -85.879 h -28.11 v 85.879" /><path
         id="path30"
         style="fill:#211c1d;fill-opacity:1;fill-rule:nonzero;stroke:none"
         d="m 2433.93,602.461 h 26.24 l 34.18,-47.52 v 47.52 h 26.47 v -85.879 h -26.47 l -34,47.188 v -47.188 h -26.42 v 85.879" /><path
         id="path32"
         style="fill:#211c1d;fill-opacity:1;fill-rule:nonzero;stroke:none"
         d="m 2661.34,547.711 v 17.828 h 43.48 v -36.598 c -8.36,-5.332 -15.72,-8.992 -22.03,-10.902 -6.41,-1.949 -14.02,-2.91 -22.75,-2.91 -10.77,0 -19.56,1.75 -26.39,5.23 -6.83,3.469 -12.09,8.629 -15.88,15.481 -3.68,6.898 -5.58,14.762 -5.58,23.719 0,9.332 2.12,17.48 6.22,24.429 4.07,6.942 9.98,12.203 17.92,15.844 6.13,2.738 14.44,4.148 24.83,4.148 10.08,0 17.64,-0.851 22.51,-2.601 5.07,-1.719 9.19,-4.391 12.44,-7.949 3.3,-3.668 5.78,-8.219 7.44,-13.789 l -27.11,-4.571 c -1.1,3.262 -2.98,5.75 -5.73,7.442 -2.56,1.707 -6,2.566 -10.11,2.566 -6.14,0 -11.09,-2.008 -14.75,-6.039 -3.63,-4.039 -5.49,-10.457 -5.49,-19.219 0,-9.289 1.86,-15.961 5.59,-19.922 3.68,-3.937 8.83,-5.976 15.39,-5.976 3.19,0 6.23,0.437 9.09,1.308 2.75,0.821 6.07,2.301 9.74,4.411 v 8.07 h -18.83" /><path
         id="path34"
         style="fill:#211c1d;fill-opacity:1;fill-rule:nonzero;stroke:none"
         d="m 2958.94,573.391 c 3.2,1.73 5.74,3.519 7.5,5.539 1.79,1.961 2.65,3.781 2.65,5.55 0,1.879 -0.76,3.36 -2.21,4.68 -1.46,1.238 -3.54,1.871 -6.12,1.871 -2.57,0 -4.63,-0.66 -6.27,-2.109 -1.62,-1.363 -2.44,-3.031 -2.44,-4.953 0,-2.418 2.3,-5.938 6.89,-10.578 z m -9,-20.821 c -3.5,-2.3 -5.82,-4.3 -6.94,-5.922 -1.16,-1.617 -1.69,-3.359 -1.69,-5.257 0,-2.809 1.33,-5.34 3.91,-7.571 2.62,-2.25 5.95,-3.34 10.13,-3.34 4.49,0 9.59,1.622 15.2,5 -5.35,3.891 -12.28,9.551 -20.61,17.09 z m 37.99,5.809 19.7,-4.168 c -1.1,-3.441 -2.02,-6.18 -2.98,-8.262 -0.94,-2.09 -2.28,-4.558 -4.03,-7.308 l 9.46,-6.219 c 1.16,-0.66 2.68,-1.512 4.44,-2.461 l -13.54,-14.82 c -2.46,1.25 -5.08,2.757 -7.68,4.347 -2.71,1.641 -5.15,3.051 -7.21,4.211 -4.37,-2.711 -8.75,-4.738 -13.12,-5.961 -6.09,-1.707 -12.99,-2.597 -20.74,-2.597 -12.08,0 -21.07,2.468 -27.05,7.168 -5.85,4.793 -8.84,10.543 -8.84,17.382 0,4.879 1.79,9.5 5.25,13.821 3.43,4.367 9.13,8.027 17.04,11.039 -3.28,3.801 -5.62,7.09 -6.83,9.89 -1.22,2.797 -1.86,5.649 -1.86,8.559 0,6.059 2.42,11.109 7.35,15.039 4.97,3.949 12.37,5.941 22.37,5.941 10.21,0 17.74,-1.898 22.56,-5.66 4.81,-3.75 7.15,-8.242 7.15,-13.468 0,-2.93 -0.7,-5.731 -2.18,-8.473 -1.48,-2.668 -3.2,-4.809 -5.29,-6.52 -2.06,-1.699 -5.82,-4.211 -11.09,-7.5 4.45,-4.218 9.03,-8.097 13.8,-11.687 1.3,2.457 2.42,5 3.32,7.707" /><path
         id="path36"
         style="fill:#211c1d;fill-opacity:1;fill-rule:nonzero;stroke:none"
         d="m 3284.28,551.719 24.61,-7.039 c -1.64,-6.469 -4.23,-11.93 -7.79,-16.289 -3.6,-4.422 -7.97,-7.731 -13.29,-9.922 -5.17,-2.25 -11.92,-3.34 -20.09,-3.34 -9.85,0 -17.92,1.359 -24.19,4.07 -6.27,2.66 -11.65,7.5 -16.22,14.313 -4.54,6.847 -6.84,15.539 -6.84,26.207 0,14.23 4.04,25.133 11.97,32.742 8.07,7.699 19.4,11.519 33.94,11.519 11.49,0 20.5,-2.261 27.05,-6.628 6.63,-4.364 11.42,-11.024 14.56,-20.114 l -24.73,-5.226 c -0.94,2.648 -1.76,4.578 -2.74,5.789 -1.57,1.969 -3.53,3.519 -5.73,4.668 -2.34,1.121 -4.85,1.59 -7.67,1.59 -6.35,0 -11.25,-2.418 -14.64,-7.239 -2.54,-3.601 -3.8,-9.242 -3.8,-16.871 0,-9.57 1.44,-16.09 4.56,-19.59 3.03,-3.558 7.33,-5.328 12.9,-5.328 5.33,0 9.47,1.418 12.15,4.301 2.79,2.84 4.79,6.977 5.99,12.387" /><path
         id="path38"
         style="fill:#211c1d;fill-opacity:1;fill-rule:nonzero;stroke:none"
         d="m 3423.23,559.359 c 0,-8.687 1.72,-14.879 5.14,-18.73 3.44,-3.758 8.07,-5.668 13.96,-5.668 6,0 10.71,1.879 13.99,5.598 3.29,3.66 4.95,10.363 4.95,19.992 0,8.097 -1.72,13.988 -5.13,17.719 -3.5,3.71 -8.17,5.582 -14.09,5.582 -5.61,0 -10.21,-1.903 -13.6,-5.68 -3.5,-3.801 -5.22,-10.012 -5.22,-18.813 z m -28.04,0.129 c 0,13.973 4.11,24.942 12.4,32.742 8.25,7.79 19.8,11.75 34.54,11.75 15.15,0 26.79,-3.89 34.96,-11.57 8.19,-7.629 12.31,-18.461 12.31,-32.23 0,-10.039 -1.86,-18.309 -5.4,-24.66 -3.61,-6.461 -8.75,-11.469 -15.46,-15.032 -6.83,-3.609 -15.2,-5.359 -25.27,-5.359 -10.27,0 -18.76,1.5 -25.47,4.633 -6.71,3.109 -12.16,7.957 -16.34,14.597 -4.17,6.723 -6.27,15.051 -6.27,25.129" /><path
         id="path40"
         style="fill:#211c1d;fill-opacity:1;fill-rule:nonzero;stroke:none"
         d="m 3580.87,602.461 h 26.21 l 34.24,-47.52 v 47.52 h 26.45 v -85.879 h -26.45 l -34.04,47.188 v -47.188 h -26.41 v 85.879" /><path
         id="path42"
         style="fill:#211c1d;fill-opacity:1;fill-rule:nonzero;stroke:none"
         d="m 3757.72,545.031 26.67,1.551 c 0.66,-4.102 1.86,-7.211 3.64,-9.363 2.83,-3.469 7.01,-5.25 12.36,-5.25 3.98,0 7.09,0.922 9.21,2.703 2.24,1.777 3.3,3.848 3.3,6.156 0,2.262 -1,4.203 -3.08,5.981 -2.04,1.781 -6.85,3.429 -14.38,4.98 -12.29,2.633 -21.1,6.09 -26.35,10.473 -5.34,4.297 -7.93,9.828 -7.93,16.566 0,4.391 1.34,8.582 4.05,12.481 2.66,3.972 6.79,7.011 12.23,9.273 5.39,2.238 12.84,3.398 22.31,3.398 11.65,0 20.44,-2.039 26.61,-6.121 6.05,-4.148 9.69,-10.64 10.85,-19.507 l -26.45,-1.481 c -0.78,3.891 -2.22,6.719 -4.44,8.438 -2.25,1.793 -5.39,2.671 -9.39,2.671 -3.21,0 -5.67,-0.691 -7.33,-2.019 -1.66,-1.281 -2.45,-2.891 -2.45,-4.742 0,-1.41 0.63,-2.629 2.01,-3.719 1.32,-1.121 4.5,-2.191 9.41,-3.16 12.33,-2.531 21.06,-4.988 26.39,-7.57 5.29,-2.571 9.17,-5.719 11.57,-9.52 2.49,-3.762 3.61,-8.031 3.61,-12.68 0,-5.531 -1.56,-10.648 -4.81,-15.308 -3.22,-4.633 -7.71,-8.172 -13.53,-10.543 -5.81,-2.391 -13.08,-3.59 -21.89,-3.59 -15.42,0 -26.15,2.812 -32.1,8.41 -5.95,5.621 -9.31,12.801 -10.09,21.492" /><path
         id="path44"
         style="fill:#211c1d;fill-opacity:1;fill-rule:nonzero;stroke:none"
         d="m 3924.08,602.461 h 85.42 V 581.25 h -28.66 v -64.668 h -28.07 v 64.668 h -28.69 v 21.211" /><path
         id="path46"
         style="fill:#211c1d;fill-opacity:1;fill-rule:nonzero;stroke:none"
         d="m 4127,567.648 h 11.77 c 1.34,0 3.8,0.442 7.47,1.223 1.84,0.34 3.38,1.258 4.58,2.699 1.14,1.461 1.77,3.09 1.77,4.942 0,2.797 -0.97,4.937 -2.79,6.418 -1.88,1.449 -5.4,2.179 -10.51,2.179 H 4127 Z m -28.24,-51.066 v 85.879 h 46.8 c 8.67,0 15.32,-0.66 19.9,-2.133 4.59,-1.359 8.29,-3.969 11.06,-7.777 2.86,-3.813 4.26,-8.43 4.26,-13.891 0,-4.781 -1.08,-8.89 -3.25,-12.32 -2.12,-3.469 -5.12,-6.32 -8.85,-8.461 -2.4,-1.34 -5.7,-2.481 -9.89,-3.43 3.37,-1.051 5.83,-2.039 7.35,-3.148 1.02,-0.699 2.54,-2.211 4.49,-4.492 1.98,-2.329 3.24,-4.071 3.96,-5.329 l 13.52,-24.898 h -31.7 l -14.94,26.258 c -2,3.39 -3.7,5.582 -5.16,6.621 -2.03,1.309 -4.31,1.969 -6.85,1.969 H 4127 v -34.848 h -28.24" /><path
         id="path48"
         style="fill:#211c1d;fill-opacity:1;fill-rule:nonzero;stroke:none"
         d="m 4330.28,602.461 h 28.03 v -51.16 c 0,-5.071 -0.8,-9.86 -2.5,-14.332 -1.69,-4.547 -4.31,-8.481 -7.87,-11.879 -3.59,-3.371 -7.33,-5.77 -11.26,-7.09 -5.44,-1.91 -11.97,-2.871 -19.62,-2.871 -4.45,0 -9.27,0.293 -14.54,0.902 -5.18,0.551 -9.53,1.707 -13.11,3.457 -3.47,1.742 -6.73,4.211 -9.61,7.434 -2.93,3.156 -4.87,6.519 -5.95,9.848 -1.72,5.468 -2.68,10.3 -2.68,14.531 v 51.16 h 28.07 v -52.359 c 0,-4.711 1.4,-8.364 4.18,-11.02 2.65,-2.594 6.51,-3.922 11.42,-3.922 4.8,0 8.59,1.289 11.31,3.879 2.76,2.609 4.13,6.25 4.13,11.063 v 52.359" /><path
         id="path50"
         style="fill:#211c1d;fill-opacity:1;fill-rule:nonzero;stroke:none"
         d="m 4513.63,551.719 24.57,-7.039 c -1.58,-6.469 -4.28,-11.93 -7.73,-16.289 -3.62,-4.422 -7.97,-7.731 -13.25,-9.922 -5.31,-2.25 -12.04,-3.34 -20.15,-3.34 -9.87,0 -17.96,1.359 -24.21,4.07 -6.24,2.66 -11.71,7.5 -16.27,14.313 -4.51,6.847 -6.77,15.539 -6.77,26.207 0,14.23 3.98,25.133 11.97,32.742 8.05,7.699 19.32,11.519 33.96,11.519 11.48,0 20.43,-2.261 27.03,-6.628 6.55,-4.364 11.42,-11.024 14.58,-20.114 l -24.85,-5.226 c -0.82,2.648 -1.74,4.578 -2.7,5.789 -1.58,1.969 -3.47,3.519 -5.77,4.668 -2.22,1.121 -4.8,1.59 -7.57,1.59 -6.43,0 -11.23,-2.418 -14.66,-7.239 -2.6,-3.601 -3.86,-9.242 -3.86,-16.871 0,-9.57 1.52,-16.09 4.61,-19.59 3.04,-3.558 7.36,-5.328 12.87,-5.328 5.39,0 9.43,1.418 12.22,4.301 2.74,2.84 4.7,6.977 5.98,12.387" /><path
         id="path52"
         style="fill:#211c1d;fill-opacity:1;fill-rule:nonzero;stroke:none"
         d="m 4621.68,602.461 h 85.34 V 581.25 h -28.59 v -64.668 h -28.12 v 64.668 h -28.63 v 21.211" /><path
         id="path54"
         style="fill:#211c1d;fill-opacity:1;fill-rule:nonzero;stroke:none"
         d="m 4797.05,602.461 h 28.11 v -85.879 h -28.11 v 85.879" /><path
         id="path56"
         style="fill:#211c1d;fill-opacity:1;fill-rule:nonzero;stroke:none"
         d="m 4946.1,559.359 c 0,-8.687 1.71,-14.879 5.07,-18.73 3.4,-3.758 8.03,-5.668 13.91,-5.668 6.05,0 10.74,1.879 14.02,5.598 3.3,3.66 5.01,10.363 5.01,19.992 0,8.097 -1.8,13.988 -5.25,17.719 -3.44,3.71 -8.07,5.582 -14.02,5.582 -5.64,0 -10.19,-1.903 -13.59,-5.68 -3.44,-3.801 -5.15,-10.012 -5.15,-18.813 z m -28.07,0.129 c 0,13.973 4.08,24.942 12.37,32.742 8.29,7.79 19.73,11.75 34.5,11.75 15.16,0 26.8,-3.89 34.97,-11.57 8.17,-7.629 12.29,-18.461 12.29,-32.23 0,-10.039 -1.78,-18.309 -5.39,-24.66 -3.54,-6.461 -8.73,-11.469 -15.47,-15.032 -6.77,-3.609 -15.2,-5.359 -25.23,-5.359 -10.28,0 -18.78,1.5 -25.49,4.633 -6.73,3.109 -12.16,7.957 -16.34,14.597 -4.17,6.723 -6.21,15.051 -6.21,25.129" /><path
         id="path58"
         style="fill:#211c1d;fill-opacity:1;fill-rule:nonzero;stroke:none"
         d="m 5103.63,602.461 h 26.25 l 34.18,-47.52 v 47.52 h 26.49 v -85.879 h -26.49 l -34,47.188 v -47.188 h -26.43 v 85.879" /><path
         id="path60"
         style="fill:#211c1d;fill-opacity:1;fill-rule:nonzero;stroke:none"
         d="m 2121.57,690.789 h -451.38 c -44.07,0 -78.81,1.859 -104.16,5.621 -39.55,5.988 -67.56,18.66 -83.98,38.102 -16.42,19.398 -24.65,48.879 -24.65,88.418 v 290.14 c 0,38.82 8.23,67.91 24.65,87.34 16.42,19.4 44.43,32.5 83.98,39.22 23.89,3.74 58.61,5.6 104.16,5.6 h 451.44 v -141.12 h -390.92 c -21.69,0 -35.83,-1.49 -42.58,-4.47 -13.45,-5.22 -20.22,-16.43 -20.22,-33.57 V 868.922 c 0,-16.43 6.77,-27.223 20.22,-32.453 7.47,-3.071 21.65,-4.547 42.58,-4.547 h 179.23 v 82.266 h -179.23 v 124.972 h 390.92 l -0.06,-348.371" /><path
         id="path62"
         style="fill:#211c1d;fill-opacity:1;fill-rule:nonzero;stroke:none"
         d="m 2650.47,1076.11 c 0,16.43 -6.43,25.75 -19.02,27.98 h -222.98 v -91.84 h 180.35 c 32.8,0 51.3,2.22 55.46,6.7 4.07,4.51 6.19,23.53 6.19,57.16 z m 210.49,-385.321 h -210.49 v 142.223 c 0,25.414 -20.62,38.136 -61.65,38.136 H 2408.47 V 690.789 h -211.71 v 554.441 h 451.43 c 46.25,0 82.48,-2.24 108.63,-6.7 38.08,-6.73 64.99,-19.82 80.69,-39.22 15.68,-19.42 23.45,-48.19 23.45,-86.24 v -109.75 c 0,-26.914 -14.16,-47.808 -42.55,-62.761 28.39,-11.176 42.55,-31.344 42.55,-60.469 V 690.789" /><path
         id="path64"
         style="fill:#211c1d;fill-opacity:1;fill-rule:nonzero;stroke:none"
         d="m 3293.33,906.957 -37,116.503 -37.99,-116.503 z m 323.74,-216.168 h -231.89 l -32.5,75.031 h -190.46 l -32.4,-75.031 h -232.98 l 227.33,553.351 h 266.56 l 226.34,-553.351" /><path
         id="path66"
         style="fill:#211c1d;fill-opacity:1;fill-rule:nonzero;stroke:none"
         d="M 4306.77,690.789 H 4081.64 L 3863.22,934.984 V 690.789 h -211.73 v 554.441 h 199.38 l 243.05,-287.863 v 286.773 l 212.85,1.09 V 690.789" /><path
         id="path68"
         style="fill:#211c1d;fill-opacity:1;fill-rule:nonzero;stroke:none"
         d="M 4593.49,690.789 H 4381.8 v 554.441 h 211.69 V 690.789" /><path
         id="path70"
         style="fill:#211c1d;fill-opacity:1;fill-rule:nonzero;stroke:none"
         d="M 5261.07,1105.25 H 5051.59 V 690.789 h -211.73 v 414.461 h -192.61 v 142.23 h 613.82 v -142.23" /></g></g></svg>