<?xml version="1.0" encoding="UTF-8" standalone="no"?>
<svg
   xmlns:dc="http://purl.org/dc/elements/1.1/"
   xmlns:cc="http://creativecommons.org/ns#"
   xmlns:rdf="http://www.w3.org/1999/02/22-rdf-syntax-ns#"
   xmlns:svg="http://www.w3.org/2000/svg"
   xmlns="http://www.w3.org/2000/svg"
   viewBox="0 0 917.02667 256.07999"
   height="256.07999"
   width="917.02667"
   xml:space="preserve"
   id="svg2"
   version="1.1"><metadata
     id="metadata8"><rdf:RDF><cc:Work
         rdf:about=""><dc:format>image/svg+xml</dc:format><dc:type
           rdf:resource="http://purl.org/dc/dcmitype/StillImage" /></cc:Work></rdf:RDF></metadata><defs
     id="defs6" /><g
     transform="matrix(1.3333333,0,0,-1.3333333,0,256.08)"
     id="g10"><g
       transform="scale(0.1)"
       id="g12"><path
         id="path14"
         style="fill:#ed1f24;fill-opacity:1;fill-rule:nonzero;stroke:none"
         d="M 1915.6,5 H 5 V 1915.6 H 1915.6 V 5" /><path
         id="path16"
         style="fill:#ffffff;fill-opacity:1;fill-rule:nonzero;stroke:none"
         d="M 1137.71,786.449 H 939.559 L 1115.7,1132.39 h 199.42 z m 319.09,482.901 h -271.36 l 106.34,209 h -153.71 l -106.34,-209 H 833.305 l 106.254,209 H 785.855 l -106.261,-209 H 488.133 L 418.355,1132.39 H 609.902 L 501.922,923.398 H 655.633 L 763.609,1132.39 H 961.996 L 785.855,786.449 H 450.609 L 381.539,649.48 H 716.121 L 611.949,443.531 765.008,442.262 869.828,649.48 h 197.652 128.33 25.38 l 317.87,619.87 h -82.26" /><path
         id="path18"
         style="fill:#231f20;fill-opacity:1;fill-rule:nonzero;stroke:none"
         d="m 4683.04,958.379 c 12.13,0 23.62,2.473 34.49,7.406 10.86,4.934 20.52,11.778 28.99,20.528 8.47,8.746 15.16,18.897 20.11,30.467 4.92,11.56 7.39,23.97 7.39,37.23 0,12.7 -2.47,24.83 -7.39,36.39 -4.95,11.57 -11.64,21.65 -20.11,30.26 -8.47,8.6 -18.13,15.51 -28.99,20.73 -10.87,5.22 -22.36,7.83 -34.49,7.83 H 4565.83 V 958.379 Z m 0,268.691 c 23.7,0 46.06,-4.58 67.07,-13.75 21.01,-9.17 39.35,-21.58 55.01,-37.23 15.67,-15.66 28.07,-33.99 37.24,-55 9.16,-21.03 13.75,-43.38 13.75,-67.08 0,-23.69 -4.59,-46.12 -13.75,-67.276 -9.17,-21.152 -21.57,-39.488 -37.24,-55.004 -15.66,-15.519 -34,-27.929 -55.01,-37.25 -21.01,-9.289 -43.37,-13.949 -67.07,-13.949 H 4565.83 V 681.23 h -82.09 v 545.84 h 199.3" /><path
         id="path20"
         style="fill:#231f20;fill-opacity:1;fill-rule:nonzero;stroke:none"
         d="m 5029.92,746.398 c 33.01,0 58.54,8.454 76.58,25.383 18.06,16.93 27.09,37.52 27.09,61.789 v 21.149 c -34.7,0 -62.7,-1.629 -84,-4.867 -21.29,-3.25 -38.01,-7.614 -50.14,-13.122 -12.12,-5.5 -20.25,-12.281 -24.33,-20.3 -4.09,-8.051 -6.13,-17.02 -6.13,-26.879 0,-11 5.21,-20.949 15.65,-29.832 10.43,-8.891 25.53,-13.321 45.28,-13.321 z m 30.04,329.202 c 22.56,0 43.23,-3.6 62,-10.8 18.75,-7.19 34.75,-16.99 48.02,-29.41 13.26,-12.41 23.55,-27 30.88,-43.792 7.34,-16.789 11.01,-35.047 11.01,-54.801 V 681.23 h -56.28 l -17.34,38.93 c -7.62,-8.191 -16.66,-15.379 -27.09,-21.582 -9.3,-5.648 -21.02,-10.648 -35.12,-15.019 C 5061.93,679.191 5045,677 5025.26,677 c -43.44,0 -76.65,10.781 -99.64,32.379 -23,21.57 -34.49,49.699 -34.49,84.402 0,19.75 3.74,37.598 11.21,53.528 7.47,15.941 20.31,29.48 38.51,40.621 18.2,11.14 42.89,19.89 74.05,26.242 31.17,6.348 70.73,9.512 118.69,9.512 v 13.113 c 0,19.754 -6.2,35.558 -18.61,47.402 -12.43,11.852 -30.77,17.761 -55.02,17.761 -25.96,0 -44.85,-4.655 -56.69,-13.956 -11.85,-9.301 -18.9,-20.59 -21.17,-33.852 h -77.85 c 2.25,34.696 16.77,63.608 43.59,86.748 26.78,23.12 64.16,34.7 112.12,34.7" /><path
         id="path22"
         style="fill:#231f20;fill-opacity:1;fill-rule:nonzero;stroke:none"
         d="m 5472.41,1075.6 c 4.5,0 8.25,-0.29 11.22,-0.85 2.96,-0.57 5.7,-1.14 8.24,-1.7 2.26,-0.57 4.51,-1.12 6.77,-1.69 v -78.282 c -2.26,0.559 -4.94,1.121 -8.03,1.699 -2.83,0.563 -5.8,1.2 -8.9,1.907 -3.1,0.695 -6.2,1.05 -9.3,1.05 -13.27,0 -25.67,-2.617 -37.24,-7.82 -11.57,-5.226 -21.65,-12.203 -30.25,-20.949 -8.62,-8.75 -15.38,-18.895 -20.32,-30.469 -4.93,-11.57 -7.4,-23.687 -7.4,-36.394 V 681.23 h -77.86 v 390.13 h 56.28 l 17.34,-39.34 c 7.06,8.17 15.37,15.5 24.97,21.99 8.19,5.08 18.48,9.95 30.9,14.6 12.4,4.66 26.94,6.99 43.58,6.99" /><path
         id="path24"
         style="fill:#231f20;fill-opacity:1;fill-rule:nonzero;stroke:none"
         d="m 5681.81,811.129 c 0,-17.199 5.78,-31.59 17.34,-43.16 11.58,-11.559 25.96,-17.34 43.17,-17.34 2.82,0 5.85,0.133 9.1,0.43 3.23,0.261 6.28,0.691 9.1,1.261 2.81,0.551 5.5,1.41 8.03,2.532 v -69.391 c -3.39,-1.691 -7.47,-3.109 -12.26,-4.231 -8.76,-2.808 -19.05,-4.23 -30.9,-4.23 -17.21,0 -33.22,3.172 -48.02,9.52 -14.82,6.351 -27.72,15.3 -38.72,26.859 -11,11.57 -19.53,25.531 -25.6,41.902 -6.06,16.36 -9.1,34.957 -9.1,55.848 v 186.605 h -69.39 v 73.626 h 30.46 c 14.95,0 27.37,4.87 37.25,14.6 9.86,9.74 14.8,22.07 14.8,37.02 v 52.05 h 64.74 v -103.67 h 86.74 v -73.626 h -86.74 V 811.129" /><path
         id="path26"
         style="fill:#231f20;fill-opacity:1;fill-rule:nonzero;stroke:none"
         d="m 6023.86,1075.6 c 21.44,0 41.68,-4.24 60.73,-12.7 19.04,-8.46 35.61,-20.03 49.71,-34.7 14.11,-14.67 25.26,-32.376 33.44,-53.106 8.18,-20.723 12.26,-43.649 12.26,-68.754 V 681.23 h -77.85 v 225.11 c 0,12.691 -2.47,24.812 -7.41,36.394 -4.94,11.563 -11.63,21.711 -20.1,30.465 -8.46,8.739 -18.19,15.723 -29.2,20.942 -10.98,5.218 -22.56,7.819 -34.69,7.819 -13.26,0 -25.67,-2.601 -37.23,-7.819 -11.58,-5.219 -21.65,-12.203 -30.26,-20.942 -8.61,-8.754 -15.37,-18.828 -20.31,-30.258 -4.94,-11.418 -7.41,-23.632 -7.41,-36.601 V 681.23 h -77.85 v 390.13 h 56.28 l 17.34,-39.34 c 7.62,8.17 16.51,15.5 26.67,21.99 9.3,5.08 21,9.95 35.11,14.6 14.11,4.66 31.04,6.99 50.77,6.99" /><path
         id="path28"
         style="fill:#231f20;fill-opacity:1;fill-rule:nonzero;stroke:none"
         d="m 6427.06,1001.96 c -25.95,0 -47.89,-8.812 -65.8,-26.437 -17.91,-17.632 -29.26,-40.687 -34.06,-69.183 h 208.19 c -4.52,28.203 -16,51.195 -34.48,68.973 -18.48,17.765 -43.09,26.647 -73.85,26.647 z m 173.49,-208.179 c -6.49,-16.07 -14.67,-31.172 -24.53,-45.269 -9.88,-14.102 -21.73,-26.524 -35.55,-37.242 -13.83,-10.719 -29.83,-19.11 -48.03,-25.18 -18.2,-6.059 -38.58,-9.09 -61.15,-9.09 -25.95,0 -50.2,4.871 -72.77,14.59 -22.58,9.738 -42.31,23.422 -59.24,41.051 -16.92,17.629 -30.18,38.57 -39.77,62.839 -9.59,24.258 -14.39,51.192 -14.39,80.821 0,29.34 4.8,56.121 14.39,80.394 9.59,24.254 22.55,45.195 38.93,62.845 16.36,17.61 35.68,31.36 57.96,41.25 22.29,9.87 45.85,14.81 70.66,14.81 24.83,0 48.38,-4.94 70.67,-14.81 22.27,-9.89 41.61,-23.64 57.98,-41.25 16.35,-17.65 29.32,-38.591 38.92,-62.845 9.59,-24.273 14.39,-51.054 14.39,-80.394 0,-4.512 -0.29,-8.973 -0.85,-13.332 -0.56,-4.379 -1.12,-8.117 -1.69,-11.207 -0.57,-3.973 -1.13,-7.352 -1.7,-10.16 H 6327.2 c 1.13,-12.133 4.66,-23.704 10.6,-34.692 5.91,-11.012 13.32,-20.672 22.2,-29 8.88,-8.32 19.54,-14.949 31.96,-19.871 12.4,-4.937 25.52,-7.41 39.33,-7.41 23.7,0 42.54,5.062 56.51,15.23 13.95,10.161 24.04,19.461 30.24,27.922 h 82.51" /><path
         id="path30"
         style="fill:#231f20;fill-opacity:1;fill-rule:nonzero;stroke:none"
         d="m 6851.42,1075.6 c 4.51,0 8.25,-0.29 11.22,-0.85 2.96,-0.57 5.71,-1.14 8.24,-1.7 2.26,-0.57 4.51,-1.12 6.77,-1.69 v -78.282 c -2.26,0.559 -4.93,1.121 -8.03,1.699 -2.82,0.563 -5.8,1.2 -8.88,1.907 -3.11,0.695 -6.21,1.05 -9.32,1.05 -13.25,0 -25.66,-2.617 -37.23,-7.82 -11.58,-5.226 -21.66,-12.203 -30.26,-20.949 -8.6,-8.75 -15.38,-18.895 -20.3,-30.469 -4.94,-11.57 -7.41,-23.687 -7.41,-36.394 V 681.23 h -77.86 v 390.13 h 56.27 l 17.36,-39.34 c 7.05,8.17 15.36,15.5 24.96,21.99 8.18,5.08 18.47,9.95 30.9,14.6 12.41,4.66 26.93,6.99 43.57,6.99" /><path
         id="path32"
         style="fill:#231f20;fill-opacity:1;fill-rule:nonzero;stroke:none"
         d="M 2909.11,1227.07 V 681.23 h -82.52 V 919.449 H 2575.25 V 681.23 h -82.09 v 545.84 h 82.09 V 997.734 h 251.34 v 229.336 h 82.52" /><path
         id="path34"
         style="fill:#231f20;fill-opacity:1;fill-rule:nonzero;stroke:none"
         d="m 3131.3,746.398 c 33.01,0 58.54,8.454 76.59,25.383 18.05,16.93 27.08,37.52 27.08,61.789 v 21.149 c -34.7,0 -62.7,-1.629 -84,-4.867 -21.3,-3.25 -38.01,-7.614 -50.14,-13.122 -12.12,-5.5 -20.24,-12.281 -24.33,-20.3 -4.09,-8.051 -6.13,-17.02 -6.13,-26.879 0,-11 5.22,-20.949 15.66,-29.832 10.42,-8.891 25.53,-13.321 45.27,-13.321 z m 30.04,329.202 c 22.57,0 43.23,-3.6 62,-10.8 18.75,-7.19 34.76,-16.99 48.02,-29.41 13.25,-12.41 23.55,-27 30.89,-43.792 7.33,-16.789 11,-35.047 11,-54.801 V 681.23 h -56.28 l -17.35,38.93 c -7.61,-8.191 -16.65,-15.379 -27.08,-21.582 -9.3,-5.648 -21.02,-10.648 -35.12,-15.019 -14.11,-4.368 -31.03,-6.559 -50.78,-6.559 -43.44,0 -76.65,10.781 -99.64,32.379 -23,21.57 -34.49,49.699 -34.49,84.402 0,19.75 3.74,37.598 11.21,53.528 7.47,15.941 20.31,29.48 38.52,40.621 18.18,11.14 42.87,19.89 74.03,26.242 31.18,6.348 70.75,9.512 118.7,9.512 v 13.113 c 0,19.754 -6.21,35.558 -18.61,47.402 -12.42,11.852 -30.76,17.761 -55.02,17.761 -25.95,0 -44.85,-4.655 -56.69,-13.956 -11.85,-9.301 -18.9,-20.59 -21.16,-33.852 h -77.86 c 2.25,34.696 16.77,63.608 43.58,86.748 26.79,23.12 64.17,34.7 112.13,34.7" /><path
         id="path36"
         style="fill:#231f20;fill-opacity:1;fill-rule:nonzero;stroke:none"
         d="m 3481.09,681.23 h -77.86 v 545.84 h 77.86 V 681.23" /><path
         id="path38"
         style="fill:#231f20;fill-opacity:1;fill-rule:nonzero;stroke:none"
         d="m 3650.89,681.23 h -77.85 v 390.13 h 77.85 z m -38.92,450.64 c -13.27,0 -24.54,4.58 -33.86,13.75 -9.31,9.17 -13.96,20.53 -13.96,34.07 0,13.25 4.65,24.46 13.96,33.63 9.32,9.17 20.59,13.75 33.86,13.75 13.25,0 24.53,-4.58 33.85,-13.75 9.3,-9.17 13.96,-20.38 13.96,-33.63 0,-13.27 -4.66,-24.54 -13.96,-33.85 -9.32,-9.32 -20.6,-13.97 -33.85,-13.97" /><path
         id="path40"
         style="fill:#231f20;fill-opacity:1;fill-rule:nonzero;stroke:none"
         d="m 3821.13,681.23 h -77.85 v 545.84 h 77.85 V 681.23" /><path
         id="path42"
         style="fill:#231f20;fill-opacity:1;fill-rule:nonzero;stroke:none"
         d="m 3990.92,681.23 h -77.86 v 390.13 h 77.86 z M 3952,1131.87 c -13.27,0 -24.54,4.58 -33.86,13.75 -9.31,9.17 -13.97,20.53 -13.97,34.07 0,13.25 4.66,24.46 13.97,33.63 9.32,9.17 20.59,13.75 33.86,13.75 13.25,0 24.53,-4.58 33.84,-13.75 9.31,-9.17 13.97,-20.38 13.97,-33.63 0,-13.27 -4.66,-24.54 -13.97,-33.85 -9.31,-9.32 -20.59,-13.97 -33.84,-13.97" /><path
         id="path44"
         style="fill:#231f20;fill-opacity:1;fill-rule:nonzero;stroke:none"
         d="m 4306.96,958.645 59.84,117.585 h -86.48 l -59.83,-117.585 h -111.64 l -39.21,-77.055 h 111.63 L 4121.43,764 h 86.48 l 59.83,117.59 h 111.63 l 39.22,77.055 h -111.63" /><path
         id="path46"
         style="fill:#ed1f24;fill-opacity:1;fill-rule:nonzero;stroke:none"
         d="m 2545.68,280.84 h -45.31 v 237.91 h 45.31 V 280.84" /><path
         id="path48"
         style="fill:#ed1f24;fill-opacity:1;fill-rule:nonzero;stroke:none"
         d="m 2674.27,456.449 c 10.31,0 19.76,-1.699 28.32,-5.097 8.56,-3.403 15.92,-8.313 22.09,-14.731 6.16,-6.422 10.95,-14.16 14.35,-23.223 3.4,-9.07 5.1,-19.269 5.1,-30.597 V 280.84 h -43.43 v 96.301 c 0,11.328 -3.34,20.449 -10.01,27.379 -6.67,6.921 -15.29,10.378 -25.87,10.378 -10.57,0 -19.2,-3.457 -25.86,-10.378 -6.68,-6.93 -10.01,-16.051 -10.01,-27.379 V 280.84 h -43.43 v 173.719 h 32.1 l 7.56,-17 c 4.27,3.519 8.93,6.671 13.97,9.441 4.28,2.27 9.38,4.41 15.29,6.422 5.91,2.008 12.52,3.027 19.83,3.027" /><path
         id="path50"
         style="fill:#ed1f24;fill-opacity:1;fill-rule:nonzero;stroke:none"
         d="m 2811.68,371.48 c 0,-6.05 1.07,-11.699 3.22,-17 2.13,-5.281 5.09,-9.878 8.87,-13.781 3.77,-3.898 8.18,-6.988 13.22,-9.25 5.03,-2.269 10.44,-3.398 16.23,-3.398 5.54,0 10.83,1.129 15.87,3.398 5.03,2.262 9.44,5.352 13.21,9.25 3.78,3.903 6.8,8.5 9.07,13.781 2.26,5.301 3.4,10.95 3.4,17 0,6.04 -1.14,11.7 -3.4,16.989 -2.27,5.293 -5.29,9.883 -9.07,13.793 -3.77,3.886 -8.18,6.976 -13.21,9.238 -5.04,2.27 -10.33,3.398 -15.87,3.398 -5.79,0 -11.2,-1.128 -16.23,-3.398 -5.04,-2.262 -9.45,-5.352 -13.22,-9.238 -3.78,-3.91 -6.74,-8.5 -8.87,-13.793 -2.15,-5.289 -3.22,-10.949 -3.22,-16.989 z m 35.88,84.969 c 7.55,0 14.35,-1.019 20.39,-3.027 6.04,-2.012 11.2,-4.152 15.49,-6.422 4.77,-2.77 9.18,-5.922 13.21,-9.441 l 7.55,17 h 32.1 V 292.18 c 0,-22.668 -7.24,-40.91 -21.71,-54.758 -14.48,-13.844 -34.93,-20.774 -61.37,-20.774 -16.11,0 -29.14,2.891 -39.08,8.684 -9.95,5.789 -17.82,12.34 -23.6,19.637 -6.55,8.312 -11.46,17.75 -14.73,28.32 h 43.43 c 1.76,-3.269 4.15,-6.16 7.17,-8.68 2.77,-2.007 6.29,-3.91 10.58,-5.66 4.27,-1.758 9.68,-2.648 16.23,-2.648 12.34,0 22.03,3.34 29.08,10.008 7.05,6.671 10.58,15.293 10.58,25.871 v 13.211 c -3.53,-3.52 -7.56,-6.672 -12.09,-9.442 -4.03,-2.519 -8.81,-4.719 -14.35,-6.597 -5.54,-1.903 -11.84,-2.84 -18.88,-2.84 -10.83,0 -21.09,2.129 -30.78,6.418 -9.69,4.281 -18.12,10.199 -25.3,17.75 -7.17,7.55 -12.84,16.48 -16.99,26.808 -4.16,10.321 -6.23,21.653 -6.23,33.992 0,12.329 2.07,23.661 6.23,33.981 4.15,10.32 9.82,19.269 16.99,26.82 7.18,7.547 15.61,13.457 25.3,17.75 9.69,4.278 19.95,6.418 30.78,6.418" /><path
         id="path52"
         style="fill:#ed1f24;fill-opacity:1;fill-rule:nonzero;stroke:none"
         d="m 3049.52,414.898 c -11.33,0 -20.58,-3.269 -27.76,-9.808 -7.18,-6.551 -11.77,-14.61 -13.78,-24.168 h 83.08 c -2.02,9.558 -6.61,17.617 -13.78,24.168 -7.18,6.539 -16.44,9.808 -27.76,9.808 z m 77.41,-81.187 c -2.26,-6.551 -5.73,-13.09 -10.38,-19.641 -4.67,-6.539 -10.33,-12.398 -16.99,-17.558 -6.68,-5.153 -14.23,-9.371 -22.67,-12.641 -8.43,-3.269 -17.55,-4.91 -27.37,-4.91 -11.84,0 -22.98,2.32 -33.42,6.988 -10.45,4.653 -19.64,11 -27.57,19.063 -7.93,8.058 -14.23,17.429 -18.88,28.136 -4.66,10.704 -6.99,22.211 -6.99,34.551 0,12.332 2.33,23.852 6.99,34.563 4.65,10.687 10.95,20.066 18.88,28.129 7.93,8.05 17.12,14.41 27.57,19.058 10.44,4.66 21.58,7 33.42,7 11.32,0 22.02,-2.14 32.1,-6.418 10.06,-4.293 18.88,-10.332 26.43,-18.133 7.56,-7.808 13.53,-17.179 17.94,-28.128 4.4,-10.961 6.61,-22.981 6.61,-36.071 0,-2.019 -0.13,-3.969 -0.38,-5.847 -0.26,-1.891 -0.51,-3.711 -0.76,-5.481 -0.25,-2.012 -0.5,-3.91 -0.75,-5.672 h -120.84 c 2.01,-8.551 6.29,-15.73 12.83,-21.519 6.55,-5.789 15.49,-8.68 26.82,-8.68 5.79,0 10.63,0.621 14.54,1.879 3.9,1.262 7.23,2.781 10,4.531 3.02,2.02 5.54,4.281 7.56,6.801 h 45.31" /><path
         id="path54"
         style="fill:#ed1f24;fill-opacity:1;fill-rule:nonzero;stroke:none"
         d="m 3247.02,456.449 c 10.32,0 19.76,-1.699 28.32,-5.097 8.56,-3.403 15.92,-8.313 22.09,-14.731 6.17,-6.422 10.95,-14.16 14.35,-23.223 3.4,-9.07 5.1,-19.269 5.1,-30.597 V 280.84 h -43.43 v 96.301 c 0,11.328 -3.34,20.449 -10,27.379 -6.68,6.921 -15.3,10.378 -25.87,10.378 -10.58,0 -19.2,-3.457 -25.87,-10.378 -6.68,-6.93 -10.01,-16.051 -10.01,-27.379 V 280.84 h -43.42 v 173.719 h 32.1 l 7.54,-17 c 4.28,3.519 8.94,6.671 13.98,9.441 4.28,2.27 9.37,4.41 15.29,6.422 5.92,2.008 12.52,3.027 19.83,3.027" /><path
         id="path56"
         style="fill:#ed1f24;fill-opacity:1;fill-rule:nonzero;stroke:none"
         d="m 3393.92,280.84 h -43.43 v 173.719 h 43.43 z m -20.78,196.379 c -6.54,0 -12.27,2.453 -17.18,7.359 -4.91,4.902 -7.36,10.641 -7.36,17.184 0,6.539 2.45,12.269 7.36,17.187 4.91,4.903 10.64,7.36 17.18,7.36 6.55,0 12.28,-2.457 17.19,-7.36 4.9,-4.918 7.36,-10.648 7.36,-17.187 0,-6.543 -2.46,-12.282 -7.36,-17.184 -4.91,-4.906 -10.64,-7.359 -17.19,-7.359" /><path
         id="path58"
         style="fill:#ed1f24;fill-opacity:1;fill-rule:nonzero;stroke:none"
         d="m 3506.03,414.898 c -11.33,0 -20.59,-3.269 -27.75,-9.808 -7.18,-6.551 -11.78,-14.61 -13.79,-24.168 h 83.08 c -2.02,9.558 -6.61,17.617 -13.79,24.168 -7.17,6.539 -16.42,9.808 -27.75,9.808 z m 77.41,-81.187 c -2.26,-6.551 -5.72,-13.09 -10.38,-19.641 -4.66,-6.539 -10.33,-12.398 -16.99,-17.558 -6.68,-5.153 -14.23,-9.371 -22.67,-12.641 -8.43,-3.269 -17.56,-4.91 -27.37,-4.91 -11.84,0 -22.98,2.32 -33.42,6.988 -10.45,4.653 -19.64,11 -27.57,19.063 -7.93,8.058 -14.22,17.429 -18.88,28.136 -4.66,10.704 -6.99,22.211 -6.99,34.551 0,12.332 2.33,23.852 6.99,34.563 4.66,10.687 10.95,20.066 18.88,28.129 7.93,8.05 17.12,14.41 27.57,19.058 10.44,4.66 21.58,7 33.42,7 11.33,0 22.02,-2.14 32.1,-6.418 10.07,-4.293 18.88,-10.332 26.44,-18.133 7.54,-7.808 13.52,-17.179 17.93,-28.128 4.4,-10.961 6.61,-22.981 6.61,-36.071 0,-2.019 -0.13,-3.969 -0.37,-5.847 -0.26,-1.891 -0.51,-3.711 -0.77,-5.481 -0.25,-2.012 -0.5,-3.91 -0.75,-5.672 h -120.84 c 2.01,-8.551 6.29,-15.73 12.83,-21.519 6.55,-5.789 15.49,-8.68 26.82,-8.68 5.79,0 10.63,0.621 14.54,1.879 3.9,1.262 7.23,2.781 10,4.531 3.03,2.02 5.54,4.281 7.56,6.801 h 45.31" /><path
         id="path60"
         style="fill:#ed1f24;fill-opacity:1;fill-rule:nonzero;stroke:none"
         d="m 3683.14,278.961 c -10.33,0 -19.77,1.699 -28.32,5.09 -8.57,3.398 -15.93,8.308 -22.1,14.73 -6.17,6.43 -10.95,14.16 -14.35,23.219 -3.39,9.078 -5.09,19.27 -5.09,30.602 v 101.957 h 43.42 v -96.297 c 0,-11.332 3.33,-20.461 10.01,-27.383 6.66,-6.918 15.3,-10.379 25.87,-10.379 10.57,0 19.19,3.461 25.86,10.379 6.67,6.922 10.01,16.051 10.01,27.383 v 96.297 h 43.43 V 280.84 h -32.1 l -7.55,17 c -4.29,-3.531 -8.94,-6.68 -13.97,-9.442 -4.29,-2.519 -9.45,-4.718 -15.48,-6.609 -6.05,-1.891 -12.6,-2.828 -19.64,-2.828" /><path
         id="path62"
         style="fill:#ed1f24;fill-opacity:1;fill-rule:nonzero;stroke:none"
         d="m 3889.02,456.449 c 2.01,0 3.78,-0.129 5.29,-0.379 1.51,-0.261 2.89,-0.511 4.15,-0.761 1.26,-0.25 2.52,-0.5 3.78,-0.75 v -45.321 c -1.26,0.25 -2.65,0.512 -4.15,0.75 -1.27,0.25 -2.83,0.512 -4.73,0.762 -1.88,0.25 -3.96,0.379 -6.23,0.379 -10.57,0 -19.2,-3.457 -25.87,-10.391 -6.67,-6.918 -10,-16.039 -10,-27.379 V 280.84 h -43.43 v 173.719 h 32.1 l 7.56,-18.887 c 3.01,3.777 6.66,7.18 10.94,10.199 3.53,2.77 7.87,5.219 13.03,7.359 5.16,2.141 11.02,3.219 17.56,3.219" /><path
         id="path64"
         style="fill:#ed1f24;fill-opacity:1;fill-rule:nonzero;stroke:none"
         d="m 3999.07,414.898 c -11.33,0 -20.59,-3.269 -27.77,-9.808 -7.16,-6.551 -11.76,-14.61 -13.78,-24.168 h 83.08 c -2.01,9.558 -6.61,17.617 -13.78,24.168 -7.18,6.539 -16.42,9.808 -27.75,9.808 z m 77.41,-81.187 c -2.27,-6.551 -5.73,-13.09 -10.39,-19.641 -4.66,-6.539 -10.32,-12.398 -16.99,-17.558 -6.67,-5.153 -14.22,-9.371 -22.66,-12.641 -8.44,-3.269 -17.56,-4.91 -27.37,-4.91 -11.84,0 -22.98,2.32 -33.43,6.988 -10.45,4.653 -19.64,11 -27.57,19.063 -7.93,8.058 -14.22,17.429 -18.88,28.136 -4.65,10.704 -6.98,22.211 -6.98,34.551 0,12.332 2.33,23.852 6.98,34.563 4.66,10.687 10.95,20.066 18.88,28.129 7.93,8.05 17.12,14.41 27.57,19.058 10.45,4.66 21.59,7 33.43,7 11.33,0 22.02,-2.14 32.09,-6.418 10.07,-4.293 18.88,-10.332 26.43,-18.133 7.56,-7.808 13.54,-17.179 17.94,-28.128 4.41,-10.961 6.61,-22.981 6.61,-36.071 0,-2.019 -0.12,-3.969 -0.38,-5.847 -0.25,-1.891 -0.51,-3.711 -0.75,-5.481 -0.25,-2.012 -0.51,-3.91 -0.76,-5.672 h -120.84 c 2.01,-8.551 6.29,-15.73 12.84,-21.519 6.54,-5.789 15.49,-8.68 26.82,-8.68 5.78,0 10.62,0.621 14.53,1.879 3.9,1.262 7.23,2.781 10.01,4.531 3.02,2.02 5.54,4.281 7.55,6.801 h 45.32" /><path
         id="path66"
         style="fill:#ed1f24;fill-opacity:1;fill-rule:nonzero;stroke:none"
         d="m 4258.11,426.23 9.44,7.559 c 2.78,2.27 5.98,5.602 9.63,10 3.65,4.402 5.48,9.883 5.48,16.441 0,6.54 -2.14,11.95 -6.42,16.231 -4.28,4.277 -9.69,6.418 -16.24,6.418 -6.55,0 -11.96,-2.141 -16.24,-6.418 -4.28,-4.281 -6.41,-9.691 -6.41,-16.231 0,-6.558 1.7,-12.16 5.1,-16.808 3.39,-4.672 6.09,-7.871 8.11,-9.633 z M 4260,316.719 c 5.8,0 10.89,0.953 15.3,2.832 4.4,1.89 8.11,4.09 11.14,6.609 3.52,2.77 6.66,5.91 9.43,9.449 l -41.53,41.532 c -4.29,-2.77 -7.93,-5.922 -10.96,-9.442 -2.77,-3.019 -5.28,-6.668 -7.55,-10.949 -2.26,-4.289 -3.39,-9.191 -3.39,-14.73 0,-3.02 0.75,-6.04 2.26,-9.059 1.52,-3.02 3.46,-5.731 5.85,-8.121 2.39,-2.399 5.29,-4.34 8.69,-5.852 3.4,-1.519 6.99,-2.269 10.76,-2.269 z m 92.52,-35.879 -28.32,28.332 c -5.04,-5.551 -10.95,-10.582 -17.75,-15.113 -5.79,-3.778 -12.9,-7.239 -21.34,-10.379 -8.44,-3.149 -18.06,-4.719 -28.88,-4.719 -21.91,0 -38.72,5.469 -50.41,16.418 -11.71,10.961 -17.56,24.98 -17.56,42.109 0,10.582 2.13,19.762 6.41,27.571 4.28,7.8 9.07,14.472 14.35,20.011 6.04,6.539 12.97,12.09 20.77,16.621 l -11.33,13.207 c -2.26,2.524 -4.6,5.231 -6.98,8.133 -2.4,2.891 -4.67,6.231 -6.8,10 -2.15,3.778 -3.85,8.047 -5.1,12.84 -1.26,4.789 -1.89,10.199 -1.89,16.238 0,8.063 1.57,15.61 4.73,22.661 3.14,7.05 7.48,13.21 13.02,18.5 5.54,5.289 12.08,9.5 19.64,12.652 7.55,3.137 15.86,4.726 24.92,4.726 9.07,0 17.38,-1.589 24.93,-4.726 7.55,-3.152 14.09,-7.363 19.64,-12.652 5.53,-5.29 9.87,-11.45 13.02,-18.5 3.15,-7.051 4.72,-14.598 4.72,-22.661 0,-6.039 -0.82,-11.519 -2.45,-16.429 -1.64,-4.91 -3.65,-9.309 -6.05,-13.219 -2.39,-3.902 -5.04,-7.301 -7.93,-10.191 -2.9,-2.891 -5.6,-5.36 -8.11,-7.372 -2.78,-2.019 -5.29,-4.148 -7.56,-6.41 -2.27,-2.269 -4.79,-4.527 -7.55,-6.797 l 35.87,-35.882 20.77,30.222 h 49.09 l -39.65,-58.543 56.66,-56.648 h -52.88" /><path
         id="path68"
         style="fill:#ed1f24;fill-opacity:1;fill-rule:nonzero;stroke:none"
         d="m 4585.14,403.578 c 4.78,0 9.31,1 13.6,3.012 4.27,2.012 8.05,4.66 11.32,7.93 3.27,3.269 5.91,7.05 7.93,11.339 2.01,4.282 3.02,8.813 3.02,13.59 0,4.781 -1.01,9.313 -3.02,13.602 -2.02,4.277 -4.66,8.051 -7.93,11.328 -3.27,3.269 -7.05,5.902 -11.32,7.93 -4.29,2.011 -8.82,3.011 -13.6,3.011 h -43.43 v -71.742 z m 0,115.172 c 11.33,0 21.91,-2.07 31.72,-6.23 9.81,-4.149 18.44,-9.809 25.87,-16.989 7.42,-7.179 13.21,-15.609 17.37,-25.301 4.15,-9.691 6.23,-19.96 6.23,-30.781 0,-10.828 -2.08,-21.09 -6.23,-30.777 -4.16,-9.692 -9.95,-18.121 -17.37,-25.301 -7.43,-7.172 -16.06,-12.84 -25.87,-16.992 -9.81,-4.149 -20.39,-6.231 -31.72,-6.231 h -43.43 V 280.84 h -45.32 v 237.91 h 88.75" /><path
         id="path70"
         style="fill:#ed1f24;fill-opacity:1;fill-rule:nonzero;stroke:none"
         d="m 4730.38,280.84 h -43.43 v 237.91 h 43.43 V 280.84" /><path
         id="path72"
         style="fill:#ed1f24;fill-opacity:1;fill-rule:nonzero;stroke:none"
         d="m 4824.52,312.941 c 11.32,0 20.45,3.34 27.38,10.008 6.91,6.672 10.38,15.289 10.38,25.871 v 7.551 c -12.84,0 -23.16,-0.57 -30.97,-1.691 -7.8,-1.141 -13.91,-2.782 -18.31,-4.91 -4.41,-2.149 -7.36,-4.731 -8.87,-7.75 -1.52,-3.02 -2.27,-6.411 -2.27,-10.192 0,-4.789 2.14,-9.129 6.42,-13.027 4.27,-3.91 9.68,-5.86 16.24,-5.86 z m 13.21,143.508 c 9.82,0 18.89,-1.699 27.2,-5.097 8.3,-3.403 15.47,-8.133 21.52,-14.161 6.04,-6.05 10.76,-13.222 14.16,-21.531 3.4,-8.308 5.1,-17.371 5.1,-27.191 V 280.84 h -32.1 l -7.55,17 c -4.03,-3.531 -8.44,-6.68 -13.22,-9.442 -4.28,-2.519 -9.44,-4.718 -15.48,-6.609 -6.05,-1.891 -12.84,-2.828 -20.39,-2.828 -18.89,0 -33.37,4.59 -43.43,13.777 -10.08,9.184 -15.11,20.961 -15.11,35.313 0,8.551 1.7,16.418 5.1,23.597 3.4,7.18 9.12,13.34 17.18,18.512 8.05,5.149 18.7,9.192 31.91,12.078 13.21,2.891 29.77,4.344 49.66,4.344 0,9.559 -2.59,16.996 -7.74,22.289 -5.16,5.277 -12.03,7.918 -20.58,7.918 -5.79,0 -10.39,-1.008 -13.79,-3.019 -3.4,-2.008 -6.1,-4.149 -8.11,-6.418 -2.27,-2.774 -3.78,-5.911 -4.54,-9.442 h -43.42 c 1,8.059 3.33,15.61 6.98,22.66 3.65,7.051 8.62,13.219 14.92,18.5 6.29,5.289 13.78,9.508 22.47,12.649 8.68,3.14 18.44,4.73 29.26,4.73" /><path
         id="path74"
         style="fill:#ed1f24;fill-opacity:1;fill-rule:nonzero;stroke:none"
         d="m 5028.81,456.449 c 10.33,0 19.76,-1.699 28.32,-5.097 8.56,-3.403 15.92,-8.313 22.09,-14.731 6.18,-6.422 10.96,-14.16 14.36,-23.223 3.4,-9.07 5.1,-19.269 5.1,-30.597 V 280.84 h -43.43 v 96.301 c 0,11.328 -3.34,20.449 -10.01,27.379 -6.67,6.921 -15.29,10.378 -25.87,10.378 -10.58,0 -19.2,-3.457 -25.87,-10.378 -6.67,-6.93 -10,-16.051 -10,-27.379 V 280.84 h -43.43 v 173.719 h 32.09 l 7.56,-17 c 4.28,3.519 8.94,6.671 13.98,9.441 4.27,2.27 9.37,4.41 15.29,6.422 5.91,2.008 12.52,3.027 19.82,3.027" /><path
         id="path76"
         style="fill:#ed1f24;fill-opacity:1;fill-rule:nonzero;stroke:none"
         d="m 5209.65,414.898 c -11.33,0 -20.57,-3.269 -27.75,-9.808 -7.17,-6.551 -11.77,-14.61 -13.78,-24.168 h 83.08 c -2.03,9.558 -6.62,17.617 -13.78,24.168 -7.18,6.539 -16.43,9.808 -27.77,9.808 z m 77.42,-81.187 c -2.26,-6.551 -5.73,-13.09 -10.39,-19.641 -4.65,-6.539 -10.32,-12.398 -16.99,-17.558 -6.67,-5.153 -14.23,-9.371 -22.65,-12.641 -8.44,-3.269 -17.56,-4.91 -27.39,-4.91 -11.83,0 -22.97,2.32 -33.42,6.988 -10.44,4.653 -19.63,11 -27.56,19.063 -7.93,8.058 -14.22,17.429 -18.88,28.136 -4.66,10.704 -6.99,22.211 -6.99,34.551 0,12.332 2.33,23.852 6.99,34.563 4.66,10.687 10.95,20.066 18.88,28.129 7.93,8.05 17.12,14.41 27.56,19.058 10.45,4.66 21.59,7 33.42,7 11.34,0 22.03,-2.14 32.1,-6.418 10.07,-4.293 18.89,-10.332 26.44,-18.133 7.56,-7.808 13.53,-17.179 17.94,-28.128 4.4,-10.961 6.61,-22.981 6.61,-36.071 0,-2.019 -0.13,-3.969 -0.38,-5.847 -0.26,-1.891 -0.51,-3.711 -0.75,-5.481 -0.26,-2.012 -0.51,-3.91 -0.77,-5.672 H 5170 c 2.02,-8.551 6.29,-15.73 12.85,-21.519 6.54,-5.789 15.47,-8.68 26.8,-8.68 5.79,0 10.64,0.621 14.54,1.879 3.91,1.262 7.24,2.781 10.01,4.531 3.02,2.02 5.54,4.281 7.55,6.801 h 45.32" /><path
         id="path78"
         style="fill:#ed1f24;fill-opacity:1;fill-rule:nonzero;stroke:none"
         d="m 5399.6,456.449 c 2.02,0 3.78,-0.129 5.3,-0.379 1.5,-0.261 2.89,-0.511 4.15,-0.761 1.26,-0.25 2.51,-0.5 3.78,-0.75 v -45.321 c -1.27,0.25 -2.65,0.512 -4.16,0.75 -1.26,0.25 -2.84,0.512 -4.72,0.762 -1.89,0.25 -3.97,0.379 -6.23,0.379 -10.58,0 -19.2,-3.457 -25.87,-10.391 -6.67,-6.918 -10.01,-16.039 -10.01,-27.379 V 280.84 h -43.43 v 173.719 h 32.1 l 7.56,-18.887 c 3.02,3.777 6.66,7.18 10.95,10.199 3.52,2.77 7.86,5.219 13.03,7.359 5.15,2.141 11.01,3.219 17.55,3.219" /><path
         id="path80"
         style="fill:none;stroke:#ec008c;stroke-width:10;stroke-linecap:butt;stroke-linejoin:miter;stroke-miterlimit:10;stroke-dasharray:none;stroke-opacity:1"
         d="M 1915.6,5 H 5 v 1910.6 h 1910.6 z" /></g></g></svg>