<?xml version="1.0" encoding="UTF-8"?>
<!-- Created with Inkscape (http://www.inkscape.org/) -->
<svg width="604.73" height="78.095" version="1.1" viewBox="0 0 604.73 78.095" xmlns="http://www.w3.org/2000/svg">
 <g transform="translate(-52.159 -52.255)">
  <g>
   <g fill="#393536">
    <path transform="matrix(.13333 0 0 -.13333 0 182.6)" d="m1592.5 620.9c-13.53 12.758-19.51 27.778-19.51 39.789 0 23.289 22.51 37.547 48.06 37.547h158.42c42.81 0 67.58 17.282 67.58 65.344v74.324c0 48.063-24.77 65.324-67.58 65.324h-208v-511.35h-76.59v585.7h307.85c72.1 0 121.67-36.805 121.67-112.64v-120.9c0-81.84-34.56-120.13-134.41-120.13h-97.63l243.31-232.03h-105.9l-237.27 229.02"/>
    <path transform="matrix(.13333 0 0 -.13333 0 182.6)" d="m2086.6 648.69v-117.14c0-48.059 24.8-66.078 67.59-66.078h240.29v-73.59h-263.57c-72.09 0-120.89 33.035-120.89 108.88v364.2c0 75.828 48.8 112.64 120.89 112.64h263.57v-74.352h-240.29c-42.79 0-67.59-17.254-67.59-65.328v-115.64h302.63v-73.579h-302.63"/>
    <path transform="matrix(.13333 0 0 -.13333 0 182.6)" d="m3066 527.79c0-43.559 24.77-62.316 71.32-62.316h136.68c47.3 0 71.31 18.757 71.31 62.316v449.79h76.61v-469.32c0-73.582-39.81-116.38-114.14-116.38h-202c-73.58 0-116.38 42.797-116.38 116.38v469.32h76.6v-449.79"/>
    <path transform="matrix(.13333 0 0 -.13333 0 182.6)" d="m3583.3 903.23v-228.27h207.25c42.8 0 68.32 17.281 68.32 65.332v97.625c0 48.055-25.52 65.316-68.32 65.316zm352.17-179.45c0-65.332-26.28-123.16-120.91-123.16h-231.26v-208.75h-76.6v585.71h307.86c72.1 0 120.91-36.805 120.91-112.64v-141.16"/>
    <path transform="matrix(.13333 0 0 -.13333 0 182.6)" d="m4096.9 531.55c0-48.047 24.8-66.078 70.58-66.078h139.68c42.79 0 67.56 18.031 67.56 66.078v306.36c0 48.074-24.77 65.328-67.56 65.328h-139.68c-45.78 0-70.58-17.254-70.58-65.328zm355.18-30.793c0-75.84-49.56-108.88-121.65-108.88h-189.23c-72.09 0-120.88 36.039-120.88 111.89v361.18c0 75.828 48.79 112.64 120.88 112.64h189.23c72.09 0 121.65-36.809 121.65-112.64v-364.2"/>
    <path transform="matrix(.13333 0 0 -.13333 0 182.6)" d="m4536.9 500.75v476.83h76.6v-446.04c0-48.047 24.77-66.078 67.57-66.078h245.55v-73.59h-268.83c-72.08 0-120.89 33.051-120.89 108.88"/>
    <path transform="matrix(.13333 0 0 -.13333 0 182.6)" d="m2904.6 500.75v221.52h-226.5v-73.579h149.14v-117.14c0-48.059-24.75-66.078-67.56-66.078h-141.92c-42.05 0-66.83 18.019-66.83 66.078v306.37c0 48.051 24.78 65.316 67.6 65.316h258.29v74.352h-281.58c-72.1 0-120.88-36.809-120.88-112.64v-364.2c0-75.824 48.78-108.88 120.88-108.88h188.48c72.07 0 120.88 33.051 120.88 108.88"/>
   </g>
   <path transform="matrix(.13333 0 0 -.13333 0 182.6)" d="m409.75 698.2s-18.559 0-18.559-18.558v-37.039s0-18.563 18.559-18.563h896.95s18.56 0 18.56 18.563v37.039s0 18.558-18.56 18.558h-896.95" fill="#80cc28"/>
   <path transform="matrix(.13333 0 0 -.13333 0 182.6)" d="m653.7 539.25s-18.558 0-18.558-18.558v-37.051s0-18.551 18.558-18.551h429.93s18.56 0 18.56 18.551v37.051s0 18.558-18.56 18.558h-429.93" fill="#009044"/>
   <path transform="matrix(.13333 0 0 -.13333 0 182.6)" d="m494.55 539.25s-18.567 0-18.567-18.558v-37.051s0-18.551 18.567-18.551h79.637s18.558 0 18.558 18.551v37.051s0 18.558-18.558 18.558h-79.637" fill="#009044"/>
   <path transform="matrix(.13333 0 0 -.13333 0 182.6)" d="m749.59 857.16s-18.563 0-18.563-18.558v-37.035s0-18.579 18.563-18.579h429.92s18.56 0 18.56 18.579v37.035s0 18.558-18.56 18.558h-429.92" fill="#fddd04"/>
   <path transform="matrix(.13333 0 0 -.13333 0 182.6)" d="m590.43 857.16s-18.559 0-18.559-18.558v-37.035s0-18.579 18.559-18.579h79.644s18.559 0 18.559 18.579v37.035s0 18.558-18.559 18.558h-79.644" fill="#fddd04"/>
  </g>
 </g>
</svg>
