<?xml version="1.0" encoding="UTF-8"?>
<!-- Created with Inkscape (http://www.inkscape.org/) -->
<svg width="142.92mm" height="28.585mm" version="1.1" viewBox="0 0 142.92 28.585" xml:space="preserve" xmlns="http://www.w3.org/2000/svg"><g transform="matrix(.26458 0 0 .26458 162.32 -44.816)"><g transform="matrix(2.3821 0 0 2.3821 -613.49 169.37)"><path transform="matrix(.13333 0 0 -.13333 0 45.36)" d="m563.32 188.51c20.739-2.875 34.727-8.567 45.328-18.453 12.379-11.739 18.641-28.801 18.641-50.75 0-43.332-35.293-72.442-87.824-72.442-38.535 0-64.133 9.289-85.621 31.082l-2.239 2.2813 33.383 33.359 2.27-2.266c12.308-12.3 29.593-18.281 52.855-18.281 16.953 0 37.168 4.3203 37.168 24.981 0 7.367-2.09 13.199-6.027 16.875-3.582 3.32-7.742 5.566-18.481 7.187l-27.531 3.844c-20.324 2.996-35.363 9.461-46.023 19.777-11.668 11.672-17.321 27.086-17.321 47.188 0 43.32 33.235 72.441 82.696 72.441 32.867 0 56.289-8.48 75.953-27.512l2.359-2.285-32.765-32.39-2.254 2.164c-13.668 13.058-30.196 14.808-44.567 14.808-19.769 0-32.047-9.816-32.047-25.629 0-3.226 0.75-9.359 5.711-14 4.395-4.066 11.469-7.027 19.403-8.133zm182.22 50.648c23.125 0 31.98-16.273 35.332-29.922l0.609-2.445h51.5l-0.632 3.754c-7.852 46.82-40.434 74.789-87.137 74.789-25.133 0-46.598-8.734-63.805-25.941-23.402-23.403-23.394-51.411-23.375-90.176v-6.235c-0.019-38.765-0.027-66.773 23.375-90.183 17.219-17.211 38.684-25.945 63.805-25.945 46.703 0 79.285 27.969 87.137 74.8l0.632 3.746h-51.5l-0.609-2.437c-3.352-13.648-12.207-29.922-35.332-29.922-10.805 0-20.074 3.8164-26.141 10.789-7.793 8.664-10.39 18.879-10.39 62.274 0 43.386 2.597 53.601 10.426 62.308 6.031 6.93 15.3 10.746 26.105 10.746m243.56-49.019h-70.817v93.261h-50.98v-234.62h50.98v95.508h70.817v-95.508h50.972v234.62h-50.972zm195.38 108h42v42.008h-42zm-70.84 0h42.01v42.008h-42.01zm56.42-12.805c25.48 0 46.35-8.496 63.81-25.93 23.7-23.718 23.69-52.242 23.69-91.714v-3.18c0-39.473 0.01-67.996-23.69-91.711-17.46-17.449-38.33-25.934-63.81-25.934-25.7 0-46.67 8.4844-64.13 25.934-23.4 23.422-23.39 51.43-23.37 90.191v6.219c-0.02 38.762-0.03 66.77 23.37 90.195 17.46 17.434 38.43 25.93 64.13 25.93m-26.41-54.828c-7.85-8.707-10.12-17.887-10.12-61.988 0-44.094 2.27-53.274 10.07-61.942 6.16-7.0857 15.78-11.125 26.46-11.125 10.62 0 19.89 3.9375 26.11 11.086 7.95 8.836 10.41 18.531 10.41 61.981 0 43.457-2.46 53.14-10.38 61.949l-0.03 0.039c-6.22 7.148-15.49 11.086-26.11 11.086-10.67 0-20.29-4.039-26.41-11.086m239.54 8.652c23.13 0 31.99-16.273 35.34-29.922l0.6-2.445h51.51l-0.62 3.754c-7.87 46.82-40.44 74.789-87.15 74.789-25.13 0-46.6-8.734-63.81-25.941-23.4-23.403-23.39-51.422-23.37-90.184v-6.219c-0.02-38.761-0.03-66.781 23.37-90.191 17.22-17.211 38.69-25.945 63.81-25.945 46.7 0 79.28 27.969 87.15 74.8l0.62 3.746h-51.51l-0.6-2.437c-3.35-13.648-12.21-29.922-35.34-29.922-10.8 0-20.06 3.8164-26.13 10.789-7.79 8.664-10.39 18.879-10.39 62.274 0 43.386 2.6 53.601 10.42 62.293 6.04 6.945 15.31 10.761 26.1 10.761m250.82 44.242-75.7-93.484v93.484h-50.98v-234.61h50.98v70.641l25.76 30.781 57.28-101.42h59.44l-82.79 140.39 78.58 94.222h-62.57" fill="#1f588f"/><path transform="matrix(.13333 0 0 -.13333 0 45.36)" d="m0.0039062 340.16v-246.94h246.46v63.527l-181.53 0.012-0.457 119.08 275.68 0.012v64.308h-340.16" fill="#ca8817"/><path transform="matrix(.13333 0 0 -.13333 0 45.36)" d="m93.281 247.14 0.2382-61.692h181.64v-120.94h-275.16v-64.52h340.16v247.15h-246.88" fill="#ca8817"/></g></g></svg>
