<?xml version="1.0" encoding="UTF-8"?>
<svg id="Layer_1" data-name="Layer 1" xmlns="http://www.w3.org/2000/svg" viewBox="0 0 1138 154">
  <defs>
    <style>
      .cls-1 {
        opacity: 0;
      }

      .cls-1, .cls-2, .cls-3 {
        stroke-width: 0px;
      }

      .cls-1, .cls-3 {
        fill: #e11b22;
      }

      .cls-2 {
        fill: #28211f;
      }
    </style>
  </defs>
  <rect class="cls-1" x="70" y="0" width=".39" height=".39"/>
  <rect class="cls-1" x="70" y="153.61" width=".39" height=".39"/>
  <g>
    <g id="PROTA">
      <path class="cls-2" d="M170,118V36h40.85c14.1,0,21.15,7.01,21.15,21.01v15.85c0,13.93-7.05,20.9-21.15,20.9h-19.95v24.24h-20.91ZM190.91,75.02h18.86c.88,0,1.32-.44,1.32-1.31v-18.03c0-.88-.44-1.31-1.32-1.31h-18.86v20.66Z"/>
      <path class="cls-2" d="M242.16,118V36h40.6c14.01,0,21.01,7.01,21.01,21.01v13.46c0,9.71-3.34,16.08-10.03,19.1l12.42,24.24-2.39,4.18h-17.91l-13.61-26.63h-9.31v26.63h-20.78ZM262.94,72.63h18.75c.87,0,1.31-.44,1.31-1.31v-15.64c0-.88-.44-1.31-1.31-1.31h-18.75v18.27Z"/>
      <path class="cls-2" d="M313.81,96.99v-39.97c0-14.01,7.03-21.01,21.08-21.01h26.54c14.05,0,21.08,7.01,21.08,21.01v39.97c0,14.01-7.03,21.01-21.08,21.01h-26.54c-14.06,0-21.08-7-21.08-21.01ZM334.66,97.94c0,.88.44,1.31,1.32,1.31h24.39c.88,0,1.32-.44,1.32-1.31v-42.27c0-.88-.44-1.31-1.32-1.31h-24.39c-.88,0-1.32.44-1.32,1.31v42.27Z"/>
      <path class="cls-2" d="M392.11,54.75l-4.6-18.75h74.5l-5.6,18.75h-21.71v63.25h-20.89v-63.25h-21.71Z"/>
      <path class="cls-2" d="M450,114.18l23.4-78.18h31.2l23.4,78.18-2.52,3.82h-17.52l-4.08-14.69h-29.76l-4.08,14.69h-17.52l-2.52-3.82ZM479.64,84.57h18.72l-8.64-30.21h-1.44l-8.64,30.21Z"/>
    </g>
    <g id="SOFTWARE">
      <path class="cls-2" d="M558,113.92v-4.9h36.83c5.42,0,8.13-2.71,8.13-8.12v-9.67c0-4.54-2.03-7.2-6.1-8l-25.71-5.25c-8.77-1.75-13.15-7.6-13.15-17.55v-6.06c0-12.18,6.1-18.27,18.29-18.27h28.93l5.38,4.18v4.9h-34.43c-5.42,0-8.13,2.71-8.13,8.12v7.73c0,4.54,2.03,7.21,6.1,8l25.71,5.13c8.77,1.75,13.15,7.64,13.15,17.67v8c0,12.18-6.1,18.27-18.29,18.27h-31.33l-5.38-4.18Z"/>
      <path class="cls-2" d="M623,99.83v-45.46c0-12.18,6.14-18.27,18.42-18.27h28.17c12.28,0,18.42,6.09,18.42,18.27v45.46c0,12.18-6.14,18.27-18.42,18.27h-28.17c-12.28,0-18.42-6.09-18.42-18.27ZM633.11,100.9c0,5.41,2.73,8.12,8.19,8.12h28.41c5.46,0,8.18-2.71,8.18-8.12v-47.61c0-5.41-2.73-8.12-8.18-8.12h-28.41c-5.46,0-8.19,2.71-8.19,8.12v47.61Z"/>
      <path class="cls-2" d="M698,118.1V36.1h54v9.07h-43.92v28.75h40.32v9.07h-40.32v35.1h-10.08Z"/>
      <path class="cls-2" d="M762,45.17v-9.07h65v9.07h-27.48v72.93h-10.03V45.17h-27.48Z"/>
      <path class="cls-2" d="M837,38.25l1.56-2.15h8.02l17.25,72.93h1.56l18.08-64.24h10.06l17.97,64.24h1.68l17.25-72.93h8.02l1.56,2.15-19.04,79.85h-16.65l-15.81-57.07-15.81,57.07h-16.65l-19.04-79.85Z"/>
      <path class="cls-2" d="M936,115.95l27-79.85h16.49l27.01,79.85-1.43,2.15h-8.24l-6.81-20.78h-37.52l-6.81,20.78h-8.25l-1.43-2.15ZM955.48,88.25h31.55l-14.34-43.07h-2.87l-14.34,43.07Z"/>
      <path class="cls-2" d="M1014.5,118.1V36.1h39.24c12.24,0,18.36,6.09,18.36,18.27v12.75c0,10.35-4.44,16.24-13.32,17.67l15.72,30.93-1.32,2.39h-8.52l-16.68-32.72h-23.4v32.72h-10.08ZM1024.58,76.31h29.28c5.44,0,8.16-2.71,8.16-8.12v-14.9c0-5.41-2.72-8.12-8.16-8.12h-29.28v31.13Z"/>
      <path class="cls-2" d="M1084.55,118.1V36.1h53.45v9.07h-43.37v25.16h40.32v9.07h-40.32v29.61h43.37v9.07h-53.45Z"/>
    </g>
  </g>
  <g>
    <path class="cls-3" d="M140,44.61c0-5.89-3.33-11.28-8.6-13.91L76.96,3.48c-4.38-2.19-9.53-2.19-13.91,0l-28.04,14.02v7.78l-7.78-3.89-18.62,9.31C3.33,33.34,0,38.72,0,44.61v64.77c0,5.89,3.33,11.28,8.6,13.91l26.4,13.2,7.78-3.89v7.78l20.27,10.13c4.38,2.19,9.53,2.19,13.91,0l54.44-27.22c5.27-2.63,8.6-8.02,8.6-13.91v-32.39l-7.78-3.89,7.78-3.89v-24.61ZM132.22,80.89l-62.22,31.11-19.44-9.72,31.11-15.56-7.78-3.89-31.11,15.56v26.44l-7.78,3.89V52.5l19.44-9.72v38.11l7.78-3.89v-38.11l-19.44-9.72v-7.78l62.22,31.11v26.44l-31.11-15.56v7.78l31.11,15.56,19.44-9.72,7.78,3.89Z"/>
    <rect class="cls-1" x="70" width=".39" height=".39"/>
    <rect class="cls-1" x="70" y="153.61" width=".39" height=".39"/>
  </g>
</svg>
