<?xml version="1.0" encoding="UTF-8"?>
<svg id="Layer_1" data-name="Layer 1" xmlns="http://www.w3.org/2000/svg" viewBox="0 0 968 82">
  <defs>
    <style>
      .cls-1 {
        fill: #28211f;
        stroke-width: 0px;
      }
    </style>
  </defs>
  <g>
    <path class="cls-1" d="M0,82V0h40.85c14.1,0,21.15,7.01,21.15,21.01v15.85c0,13.93-7.05,20.9-21.15,20.9h-19.95v24.24H0ZM20.91,39.02h18.86c.88,0,1.32-.44,1.32-1.31v-18.03c0-.88-.44-1.31-1.32-1.31h-18.86v20.66Z"/>
    <path class="cls-1" d="M72.16,82V0h40.6c14.01,0,21.01,7.01,21.01,21.01v13.46c0,9.71-3.34,16.08-10.03,19.1l12.42,24.24-2.39,4.18h-17.91l-13.61-26.63h-9.31v26.63h-20.78ZM92.94,36.63h18.75c.87,0,1.31-.44,1.31-1.31v-15.64c0-.88-.44-1.31-1.31-1.31h-18.75v18.27Z"/>
    <path class="cls-1" d="M143.81,60.99V21.01c0-14.01,7.03-21.01,21.08-21.01h26.54c14.05,0,21.08,7.01,21.08,21.01v39.97c0,14.01-7.03,21.01-21.08,21.01h-26.54c-14.06,0-21.08-7-21.08-21.01ZM164.66,61.94c0,.88.44,1.31,1.32,1.31h24.39c.88,0,1.32-.44,1.32-1.31V19.67c0-.88-.44-1.31-1.32-1.31h-24.39c-.88,0-1.32.44-1.32,1.31v42.27Z"/>
    <path class="cls-1" d="M222.11,18.75l-4.6-18.75h74.5l-5.6,18.75h-21.71v63.25h-20.89V18.75h-21.71Z"/>
    <path class="cls-1" d="M280,78.18L303.4,0h31.2l23.4,78.18-2.52,3.82h-17.52l-4.08-14.69h-29.76l-4.08,14.69h-17.52l-2.52-3.82ZM309.64,48.57h18.72l-8.64-30.21h-1.44l-8.64,30.21Z"/>
  </g>
  <g>
    <path class="cls-1" d="M388,77.82v-4.9h36.83c5.42,0,8.13-2.71,8.13-8.12v-9.67c0-4.54-2.03-7.2-6.1-8l-25.71-5.25c-8.77-1.75-13.15-7.6-13.15-17.55v-6.06c0-12.18,6.1-18.27,18.29-18.27h28.93l5.38,4.18v4.9h-34.43c-5.42,0-8.13,2.71-8.13,8.12v7.73c0,4.54,2.03,7.21,6.1,8l25.71,5.13c8.77,1.75,13.15,7.64,13.15,17.67v8c0,12.18-6.1,18.27-18.29,18.27h-31.33l-5.38-4.18Z"/>
    <path class="cls-1" d="M453,63.73V18.27c0-12.18,6.14-18.27,18.42-18.27h28.17c12.28,0,18.42,6.09,18.42,18.27v45.46c0,12.18-6.14,18.27-18.42,18.27h-28.17c-12.28,0-18.42-6.09-18.42-18.27ZM463.11,64.81c0,5.41,2.73,8.12,8.19,8.12h28.41c5.46,0,8.18-2.71,8.18-8.12V17.19c0-5.41-2.73-8.12-8.18-8.12h-28.41c-5.46,0-8.19,2.71-8.19,8.12v47.61Z"/>
    <path class="cls-1" d="M528,82V0h54v9.07h-43.92v28.75h40.32v9.07h-40.32v35.1h-10.08Z"/>
    <path class="cls-1" d="M592,9.07V0h65v9.07h-27.48v72.93h-10.03V9.07h-27.48Z"/>
    <path class="cls-1" d="M667,2.15l1.56-2.15h8.02l17.25,72.93h1.56l18.08-64.24h10.06l17.97,64.24h1.68L760.42,0h8.02l1.56,2.15-19.04,79.85h-16.65l-15.81-57.07-15.81,57.07h-16.65l-19.04-79.85Z"/>
    <path class="cls-1" d="M766,79.85L793,0h16.49l27.01,79.85-1.43,2.15h-8.24l-6.81-20.78h-37.52l-6.81,20.78h-8.25l-1.43-2.15ZM785.48,52.15h31.55l-14.34-43.07h-2.87l-14.34,43.07Z"/>
    <path class="cls-1" d="M844.5,82V0h39.24c12.24,0,18.36,6.09,18.36,18.27v12.75c0,10.35-4.44,16.24-13.32,17.67l15.72,30.93-1.32,2.39h-8.52l-16.68-32.72h-23.4v32.72h-10.08ZM854.58,40.21h29.28c5.44,0,8.16-2.71,8.16-8.12v-14.9c0-5.41-2.72-8.12-8.16-8.12h-29.28v31.13Z"/>
    <path class="cls-1" d="M914.55,82V0h53.45v9.07h-43.37v25.16h40.32v9.07h-40.32v29.61h43.37v9.07h-53.45Z"/>
  </g>
</svg>
