<?xml version="1.0" encoding="UTF-8" standalone="no"?>
<svg
   viewBox="0 0 560.74573 595.00568"
   id="svg2"
   height="595.00568"
   width="560.74573"
   version="1.1"
   sodipodi:docname="MASE21-ADRA.svg"
   inkscape:version="1.4 (86a8ad7, 2024-10-11)"
   xmlns:inkscape="http://www.inkscape.org/namespaces/inkscape"
   xmlns:sodipodi="http://sodipodi.sourceforge.net/DTD/sodipodi-0.dtd"
   xmlns="http://www.w3.org/2000/svg"
   xmlns:svg="http://www.w3.org/2000/svg"
   xmlns:rdf="http://www.w3.org/1999/02/22-rdf-syntax-ns#"
   xmlns:cc="http://creativecommons.org/ns#"
   xmlns:dc="http://purl.org/dc/elements/1.1/">
  <sodipodi:namedview
     id="namedview1"
     pagecolor="#ffffff"
     bordercolor="#000000"
     borderopacity="0.25"
     inkscape:showpageshadow="2"
     inkscape:pageopacity="0.0"
     inkscape:pagecheckerboard="0"
     inkscape:deskcolor="#d1d1d1"
     inkscape:zoom="2.3068182"
     inkscape:cx="280.47291"
     inkscape:cy="297.16256"
     inkscape:window-width="3840"
     inkscape:window-height="2066"
     inkscape:window-x="-11"
     inkscape:window-y="-11"
     inkscape:window-maximized="1"
     inkscape:current-layer="svg2" />
  <metadata
     id="metadata56">
    <rdf:RDF>
      <cc:Work
         rdf:about="">
        <dc:format>image/svg+xml</dc:format>
        <dc:type
           rdf:resource="http://purl.org/dc/dcmitype/StillImage" />
      </cc:Work>
    </rdf:RDF>
  </metadata>
  <defs
     id="defs54" />
  <g
     id="g4"
     transform="translate(-25.62715,-98.64885)">
    <path
       id="path6"
       style="fill:#f07c00;fill-rule:evenodd;stroke:#1b1918;stroke-width:2.9999;stroke-linecap:butt;stroke-linejoin:miter;stroke-dasharray:none"
       d="m 300.5991,110.0727 c 138.1355,0 250.1159,105.5174 250.1159,235.6798 0,130.1624 -111.9804,235.6798 -250.1159,235.6798 -138.1351,0 -250.1158,-105.5174 -250.1158,-235.6798 0,-130.1624 111.9807,-235.6798 250.1158,-235.6798 z" />
    <path
       id="path8"
       style="fill:#1b1918;fill-rule:evenodd"
       d="m 266.9591,335.1499 31.4735,114.882 h -81.5009 z" />
    <path
       id="path10"
       style="fill:#1b1918;fill-rule:evenodd"
       d="m 168.8832,560.3967 19.2272,-45.3611 h 126.8772 l 11.5939,39.2574 c 0,0 -132.5088,1.921 -157.6983,6.1037 z" />
    <path
       id="path12"
       style="fill:#ffffff;fill-rule:evenodd"
       d="m 196.1639,526.6997 -8.5729,20.2113 c 34.2803,-2.2118 94.5546,-3.5186 123.1192,-4.0416 l -4.7811,-16.1697 z" />
    <path
       id="path14"
       style="fill:#ffffff;fill-rule:evenodd"
       d="m 264.3592,371.0692 -29.2889,67.2773 h 47.7273 z" />
    <path
       id="path16"
       style="fill:#ffffff;fill-rule:evenodd"
       d="m 452.8615,359.104 c -0.3121,-0.3334 -0.7371,-0.6432 -0.7767,-1.0455 -0.0929,-1.1064 0.8784,-2.1434 2.4326,-2.9576 z" />
    <path
       id="path18"
       style="fill:#ffffff;fill-rule:evenodd"
       d="m 453.6053,359.8684 c -0.1345,-0.0808 -0.2367,-0.1506 -0.3521,-0.2414 z" />
    <path
       id="path20"
       style="fill:#ffffff;fill-rule:evenodd;stroke:#1b1918;stroke-width:2.9999;stroke-linecap:butt;stroke-linejoin:miter;stroke-dasharray:none"
       d="m 374.7454,236.3688 34.6618,7.2913 0.2905,33.4662 32.4771,26.81 1.3269,17.0562 -11.2648,3.5394 18.9162,44.1963 19.2669,0.01 2.9491,-11.0835 8.8233,-33.1646 0.4137,-1.5685 -10.6035,-3.8616 13.5746,-34.4329 c 0,0 5.6414,-4.1822 1.3249,-23.1679 l -24.1839,-93.3197 c 67.512,55.9706 81.851,130.1743 84.3047,170.4597 l 0.2176,0.0418 c 0,0 -5e-4,2.2222 -5e-4,4.0316 0.6837,15.4662 -0.3727,24.9783 -0.3727,24.9783 -2.3182,70.7944 -57.6568,134.5013 -57.6568,134.5013 z m -72.3479,-91.077 c -68.9113,-0.6456 -150.0708,16.088 -150.0708,16.088 0,-5e-4 55.3294,-49.5556 153.6733,-49.5556 92.1449,-0.001 146.4663,49.5556 146.4663,49.5556 0,-5e-4 -86.7892,-15.4866 -150.0688,-16.088 z m -185.5278,356.86 c 0,0 -55.319,-63.706 -57.6274,-134.5009 0,0 -13.2734,-118.7417 84.1403,-199.5109 l -24.1957,93.3192 c -4.2959,18.9852 1.3249,23.1684 1.3249,23.1684 l 13.5956,34.4324 -10.6039,3.8616 0.9023,2.7162 0.0831,-0.0214 9.9912,30.3505 c 0,0 -0.0103,0 -0.0225,0 l 7.6001,22.947 h 12.9193 l 18.8854,-54.382 -11.2647,-3.5394 1.3253,-17.0562 32.4669,-24.1355 0.6641,-34.1897 40.0865,-8.9302 z m 397.9445,51.136 -18.5019,-41.2102 2.081,-2.3946 c 2.372,-2.7348 58.0617,-67.6678 60.422,-140.7852 0.0518,-0.4209 1.1493,-10.5781 0.445,-26.2252 l 5e-4,-4.0316 -0.9527,-9.8356 C 554.1765,285.7653 536.7206,214.1562 470.5237,159.2497 l -13.9561,-9.836 c -3.354,-2.6859 -8.7494,-6.6861 -16.0268,-11.303 l -0.5379,-0.3819 0.0185,0.0498 C 415.3098,122.1823 369.2884,100.1488 306,100.1488 c -68.2163,-10e-4 -116.4424,22.6149 -141.6529,38.2236 l 0.0107,-0.0508 -0.3105,0.2313 c -12.2571,7.6016 -19.0806,13.5362 -19.8675,14.2397 l -1.1801,1.066 -7.4241,5.3907 c -101.0783,83.818 -88.8511,204.5604 -88.3434,208.7735 2.4136,73.9924 58.0813,138.9254 60.4416,141.6602 l 5.5607,6.3987 -17.2275,37.7876 -68.8799,6.8205 v 130.5681 l 13.7677,-1.9709 c 1.389,-0.201 140.8783,-19.8916 256.5734,-20.3524 l 7.1966,-0.0223 c 154.7292,0 264.8337,20.0935 265.9326,20.2944 l 14.2755,2.6445 V 560.7706 Z" />
    <path
       id="path22"
       style="fill:#1b1918;fill-rule:evenodd;stroke:#1b1918;stroke-width:2.9999;stroke-linecap:butt;stroke-linejoin:miter;stroke-dasharray:none"
       d="m 460.1285,300.5075 -20.2088,-18.9857 25.8297,-28.3695 4.6398,23.8633 z m -31.9719,-31.8591 2.8176,-21.8811 16.0678,16.9445 -11.2647,13.3038 z m -17.557,-73.0471 24.3497,-18.8242 -8.4491,44.8898 z m -29.1559,21.5609 23.5228,-17.9411 14.0803,23.7346 z m -21.6995,-25.7436 26.0072,-22.8482 15.4057,24.4567 -26.6699,19.7914 z m -27.333,19.6707 21.0387,-15.488 11.43,18.6632 z m -9.4405,-2.6164 -16.0699,-24.7783 26.173,-21.8825 15.5715,26.5497 z m -31.5567,1.2892 11.8633,-18.7159 0.2279,-0.352 12.4238,19.0679 z m -31.8061,-21.4003 15.571,-26.5497 26.173,21.8825 -16.0679,24.7783 z m -16.2337,25.9027 11.43,-18.6632 21.0369,15.488 z m -36.2786,-21.2374 15.4057,-24.4567 26.0072,22.8482 -14.7425,21.3999 z m -17.8897,29.9286 14.0803,-23.7346 23.5233,17.9411 z m -7.4534,-1.2888 -8.4491,-44.8898 24.3512,18.8242 z m -9.2771,55.3487 -11.2647,-13.3038 16.0678,-16.9445 2.8156,21.8811 z m -24.3512,23.4919 -10.2607,-23.4919 4.6393,-23.8633 25.8316,28.3695 z m 6.6268,-94.1257 20.7072,23.1684 v 8.5283 l -17.0631,19.6303 -13.915,-12.711 z m 6.9566,-29.6047 4.1409,-1.2892 9.6097,46.179 -18.7196,-22.4458 z m 52.6776,-8.2067 -12.4757,19.7914 -20.9855,-16.7331 c 2.6503,-0.3235 33.4612,-3.0583 33.4612,-3.0583 z m 52.5118,-6.7583 -13.2518,22.8477 -24.5171,-18.9852 z m 56.1548,-1.1268 -18.967,16.4115 -18.9666,-16.4115 z m 56.0728,4.9893 -24.5166,18.9852 -13.2508,-22.8477 z m 48.2055,5.9541 -20.9864,16.7331 -12.4762,-19.7914 c 0,0 30.8123,2.7353 33.4626,3.0583 z m 19.215,5.1484 4.969,22.444 -18.7182,22.4458 9.6083,-46.179 z m 17.2275,68.2207 -13.913,12.711 -17.0637,-19.6303 v -8.5283 l 20.7072,-23.1684 z m 6.42,79.7137 c -1.1391,-0.543 -2.4762,-0.9334 -4.0167,-1.2052 v -19.1377 l 13.913,-27.8356 -29.7134,-107.0477 c 0,0 -89.2237,-15.4443 -146.6531,-15.4443 -57.4294,0 -145.99,15.4443 -145.99,15.4443 l -29.5999,107.2591 14.36,29.826 1.0559,6.2743 v 9.152 c -1.5425,0.2812 -2.8796,0.6755 -4.0182,1.208 l -78.4764,13.9361 c 0,0 0,0.0808 0,0.1026 l -0.0621,-5e-4 v 6.2244 l 0.0621,-0.0104 c 0,0.7538 0,0.9253 0,0.9253 0,0 9.8136,-2.1315 22.3739,-4.746 l 53.5765,-9.172 c 0.0831,0.0703 0.2279,0.1814 0.3106,0.2617 0.7262,2.3928 3.8113,3.1372 6.0678,3.3485 v 1.7809 c 0,0 -76.3646,14.1575 -82.3288,15.9289 v 6.5959 c 0,0 65.7122,-13.7969 79.7598,-15.9987 -0.008,0.0195 -0.0294,0.0299 -0.0294,0.0503 -0.1966,1.9705 2.4845,3.8207 6.2425,4.6653 v 1.4693 c 0,0 -69.7398,12.7096 -85.1449,17.5359 v 5.7931 c 0,0 70.6298,-15.6985 78.8506,-16.7944 -0.01,-5e-4 -0.0103,0 -0.0103,0.0114 -0.155,1.5985 1.9152,3.1371 4.8966,3.9114 l -0.0827,0.6432 h 6.4616 v -0.3619 c 2.348,-0.4223 4.0783,-1.4076 4.2128,-2.7562 0.1242,-1.388 -1.4285,-2.6934 -3.7492,-3.5494 l 0.4778,-5.4601 c 3.292,-0.3605 5.7041,-1.6688 5.8801,-3.4302 0.1761,-1.7781 -1.9773,-3.5177 -5.1758,-4.4644 l 0.4245,-4.8064 c 5.3416,-0.4527 9.3373,-2.4616 9.6171,-5.2786 0.2792,-2.8174 -3.2489,-5.4999 -8.3749,-6.9398 l 0.9317,-20.0213 30.6451,-29.2844 -4.8051,-43.2814 79.8449,-9.8138 v 12.4996 h 9.9378 V 221.828 l 14.0823,10.8906 h 9.5667 l -20.1692,-15.3968 h 49.8605 l -21.3684,15.3968 h 9.8034 l 15.0447,-12.8212 3.0435,12.8212 h 8.0354 l -1.3063,-13.1432 86.9667,12.3894 -3.8093,41.1897 31.1419,30.4094 1.8135,20.5039 c -5.2179,1.4294 -8.8116,4.1442 -8.5323,6.9902 0.2797,2.825 4.2754,4.8363 9.619,5.2805 l 0.4245,4.8059 c -3.2005,0.9434 -5.3538,2.6949 -5.1778,4.4644 0.1776,1.7714 2.5896,3.0768 5.8816,3.4288 l 0.4763,5.4614 c -2.3187,0.8532 -3.8734,2.1719 -3.7477,3.5595 0.135,1.3458 1.8633,2.3329 4.2133,2.7552 v 0.3515 h 6.4596 l -0.0821,-0.6332 c 2.9828,-0.7843 5.053,-2.3144 4.896,-3.9229 0,-4e-4 0,0 -0.0107,0 8.2217,1.0874 78.853,16.7849 78.853,16.7849 v -5.7935 c -15.4071,-4.8263 -85.1468,-17.5373 -85.1468,-17.5373 v -1.4579 c 3.7599,-0.8546 6.439,-2.7049 6.2439,-4.6653 5e-4,-0.0205 -0.0225,-0.0423 -0.0308,-0.0604 14.0495,2.2014 79.7598,15.9987 79.7598,15.9987 v -6.5977 c -5.9628,-1.77 -82.3289,-15.9284 -82.3289,-15.9284 v -2.1823 c 0.1159,-0.0399 0.1981,-0.1003 0.312,-0.1387 3.5199,-0.2029 6.646,-3.6317 6.646,-3.6317 8.6149,0 75.3709,14.481 75.3709,14.481 0,0 0,0 0,-1.2869 0,-1.2878 0,-5.9526 0,-5.9526 z" />
    <path
       id="path24"
       style="fill:#1b1918;fill-rule:evenodd"
       d="m 497.2973,433.7805 c -10.3639,0 -18.77,-8.1545 -18.77,-18.2314 5e-4,-10.0769 8.4056,-18.2328 18.77,-18.2328 10.3726,-5e-4 18.7802,8.1564 18.7802,18.2328 0,10.0764 -8.4076,18.2314 -18.7802,18.2314 z m 0,-42.3062 c -13.6666,0 -24.788,10.799 -24.788,24.0748 0,13.2739 11.1214,24.0748 24.788,24.0748 13.666,0 24.7962,-10.8004 24.7962,-24.0748 0,-13.2758 -11.1302,-24.0748 -24.7962,-24.0748 z" />
    <path
       id="path26"
       style="fill:#1b1918;fill-rule:evenodd"
       d="m 502.1268,410.8985 c 0,0.5097 -0.1403,0.9672 -0.4299,1.4028 -0.2743,0.4156 -0.6749,0.7125 -1.227,0.9083 -0.628,0.2246 -1.544,0.3368 -2.7242,0.3368 h -5.1929 v -5.168 h 5.8762 c 1.3527,0 2.3255,0.248 2.8914,0.7354 0.5423,0.4674 0.8059,1.0508 0.8064,1.7847 z m 2.531,8.9558 c -0.7698,-1.1529 -1.6032,-2.1333 -2.483,-2.9176 -0.0157,-0.0119 -0.0313,-0.0252 -0.0465,-0.0385 1.2163,-0.3891 2.1979,-0.9619 2.9276,-1.7125 1.1302,-1.1653 1.7029,-2.606 1.7029,-4.2872 0,-1.2873 -0.3399,-2.4816 -1.0129,-3.5542 -0.69,-1.0978 -1.6305,-1.8754 -2.793,-2.3125 -1.097,-0.4128 -2.6156,-0.6132 -4.6413,-0.6132 l -10.3032,-5e-4 v 22.3608 h 4.5444 v -9.1872 h 2.4048 c 0.8285,0 1.2094,0.0438 1.365,0.0756 0.3399,0.0817 0.6847,0.2294 1.0231,0.4408 0.2328,0.1454 0.6314,0.4708 1.2178,1.1966 0.5076,0.6266 1.1767,1.5619 1.9841,2.7818 l 3.0748,4.6924 h 5.5915 z" />
    <path
       id="path28"
       style="fill:#e30016;fill-rule:evenodd"
       d="m 293.2343,270.4687 36.2253,-16.2994 26.4958,165.6128 34.0216,-59.2202 23.8421,166.4793 15.9109,-12.872 -11.4907,55.7714 -35.7817,-43.7644 20.335,3.0164 -18.5646,-117.1445 -34.8897,45.4851 z" />
    <path
       id="path30"
       style="fill:#e30016;fill-rule:evenodd"
       d="m 552.3561,617.4565 c 0,6.1636 -5.054,11.151 -11.2857,11.151 -6.2229,0 -11.2853,-4.9874 -11.2853,-11.151 0,-6.1655 5.0619,-11.1524 11.2853,-11.1524 6.2317,-5e-4 11.2853,4.9874 11.2857,11.1524 z" />
    <path
       id="path32"
       style="fill:#e30016;fill-rule:evenodd"
       d="m 81.2019,617.4565 c 0,6.1636 -5.0535,11.151 -11.2852,11.151 -6.2234,0 -11.2853,-4.9874 -11.2853,-11.151 0,-6.1655 5.0619,-11.1524 11.2853,-11.1524 6.2317,-5e-4 11.2852,4.9874 11.2852,11.1524 z" />
    <path
       id="path34"
       style="fill:#e30016;fill-rule:evenodd"
       d="m 149.6476,619.4977 -13.6372,-24.698 -6.0454,27.3221 z m 30.7781,24.1351 -15.861,2.1215 -8.5509,-15.0757 -28.856,3.863 -3.6837,16.7231 -15.4673,2.0612 18.1694,-73.8518 15.4052,-2.073 z" />
    <path
       id="path36"
       style="fill:#e30016;fill-rule:evenodd"
       d="m 234.304,580.3187 -0.6197,46.8708 10.984,0.1311 c 4.1111,0.0499 7.0802,-0.1306 8.9143,-0.5715 2.371,-0.5349 4.3688,-1.5201 5.9734,-2.8573 1.5939,-1.3676 2.8899,-3.6298 3.9439,-6.7973 1.0265,-3.149 1.5733,-7.4723 1.6565,-12.9437 0.0723,-5.4587 -0.3727,-9.6732 -1.3254,-12.6089 -0.9522,-2.9162 -2.3187,-5.2287 -4.0886,-6.8994 -1.7705,-1.6892 -4.027,-2.8056 -6.7722,-3.4288 -2.0374,-0.4641 -6.0644,-0.7339 -12.0496,-0.8161 z m -14.5459,-12.1685 26.8767,0.362 c 6.0679,0.0603 10.6745,0.5634 13.8529,1.5087 4.2564,1.2665 7.8882,3.4991 10.8901,6.6581 2.9936,3.1571 5.2707,7.0082 6.8044,11.5529 1.5411,4.5247 2.2449,10.1272 2.1637,16.7449 -0.0827,5.8316 -0.8799,10.8394 -2.4341,15.032 -1.8844,5.1295 -4.5449,9.2642 -7.9728,12.4013 -2.5672,2.3828 -6.0562,4.2026 -10.404,5.5099 -3.2709,0.9753 -7.6084,1.418 -13.0347,1.3273 l -27.6847,-0.3321 z" />
    <path
       id="path38"
       style="fill:#e30016;fill-rule:evenodd"
       d="m 481.0431,618.1505 -6.2958,-27.353 -13.4078,24.727 z m 22.952,31.2739 -15.8503,-2.0915 -4.0793,-16.775 -28.8541,-3.8088 -8.1899,15.1441 -15.457,-2.0426 37.9224,-66.3795 15.4281,2.0213 z" />
    <path
       id="path40"
       style="fill:#003482;fill-rule:evenodd"
       d="m 256.6055,587.791 c -1.1699,-1.1163 -2.6914,-1.8616 -4.6584,-2.3139 -0.9747,-0.2213 -3.7179,-0.6118 -11.0886,-0.6921 l -2.1016,-0.0423 -0.5071,38.1235 7.7121,0.0902 c 3.8509,0 5.6746,-0.2513 6.5339,-0.4622 1.6771,-0.3824 3.0435,-1.0256 4.12,-1.9205 0.6005,-0.5145 1.5943,-1.8218 2.5984,-4.8383 0.8695,-2.6744 1.3576,-6.6058 1.4388,-11.645 0.0832,-6.184 -0.5693,-9.532 -1.118,-11.2417 -0.7243,-2.2117 -1.7078,-3.9228 -2.9295,-5.0577 z" />
    <path
       id="path42"
       style="fill:#003482;fill-rule:evenodd"
       d="m 135.7209,616.932 6.8856,-0.9149 -4.7621,-8.6475 z" />
    <path
       id="path44"
       style="fill:#003482;fill-rule:evenodd"
       d="m 368.9485,582.0279 -17.2597,0.01 v 12.0573 h 17.3526 c 1.3963,-0.0603 3.9013,-0.9448 3.9013,-6.0225 0,-5.0895 -2.5055,-5.964 -3.9942,-6.0448 z" />
    <path
       id="path46"
       style="fill:#003482;fill-rule:evenodd"
       d="m 468.3292,612.0354 6.8944,0.9149 -2.2052,-9.5824 z" />
    <path
       id="path48"
       style="fill:#003482;fill-rule:evenodd;stroke:#1b1918;stroke-width:2.9999;stroke-linecap:butt;stroke-linejoin:miter;stroke-dasharray:none"
       d="m 541.0709,634.449 c -9.5364,0 -17.3023,-7.6196 -17.3023,-16.9925 5e-4,-9.363 7.7659,-16.9858 17.3018,-16.9858 9.5344,0 17.2998,7.6233 17.2998,16.9858 0,9.3729 -7.7659,16.9929 -17.2993,16.9925 z m -56.6014,16.8157 -4.0784,-16.7635 -22.6541,-2.996 -8.19,15.1441 -25.1273,-3.32 42.6238,-74.5957 21.5048,2.8155 21.4408,83.0836 z m -116.2248,-133.1038 27.3517,4.0539 -15.1142,-95.4848 -33.5349,43.6932 -60.9282,-203.152 48.1419,-21.6601 25.0531,156.5126 34.2392,-59.5917 24.8378,173.2965 20.6647,-16.7231 -17.3502,84.3101 z m 24.8462,97.8377 v 24.9778 h -21.9166 v -21.4283 c -0.0832,-3.5713 -2.6004,-5.0777 -3.8114,-5.6021 l -16.9975,-5e-4 v 27.0309 h -21.7753 v -77.111 h 45.3567 c 13.5335,0 18.9592,11.3458 19.931,17.3383 l 0.0518,12.2787 c -0.1036,4.7356 -2.659,8.3559 -5.5074,10.9315 3.3541,3.197 4.6687,7.9231 4.6687,11.5847 z m -224.2077,-55.6019 19.2272,-45.3611 h 126.8772 l 11.5939,39.2574 c 0,0 -132.5088,1.921 -157.6983,6.1037 z m 113.2727,61.0919 c -2.1098,5.7531 -5.1866,10.4992 -9.1201,14.0985 -3.0122,2.8056 -7.1136,5.0074 -12.1754,6.5175 -3.468,1.0337 -7.7454,1.5382 -13.066,1.5382 l -33.5437,-0.4019 1.0559,-79.5161 31.3923,0.4038 c 6.5423,0.0703 11.4907,0.6237 15.1034,1.7096 4.9998,1.4879 9.3393,4.1424 12.8899,7.8628 3.4367,3.6397 6.0557,8.0656 7.7757,13.1751 1.6673,4.8967 2.4742,11.0104 2.3813,18.1511 -0.0826,6.4248 -0.9747,11.806 -2.6933,16.4614 z m -120.0449,29.0118 -8.5523,-15.0757 -22.6517,3.0383 -3.6852,16.7146 -25.1278,3.3566 20.4157,-82.9934 21.4735,-2.8853 43.6592,74.4346 z M 69.9167,634.449 c -9.5359,0 -17.3018,-7.6196 -17.3018,-16.9925 5e-4,-9.363 7.7659,-16.9858 17.3018,-16.9858 9.5344,0 17.2998,7.6233 17.2998,16.9858 0,9.3729 -7.7659,16.9929 -17.2998,16.9925 z m 197.0424,-299.2991 31.4735,114.882 H 216.9317 Z M 506.5832,564.159 357.7254,232.7186 H 255.4669 L 104.175,564.8022 39.1474,571.227 v 106.5152 c 0,0 140.3378,-20.0108 258.2689,-20.483 161.6871,-0.6456 275.4382,20.4835 275.4382,20.4835 V 571.227 Z" />
    <path
       id="path50"
       style="fill:#e30016;fill-rule:evenodd"
       d="m 369.0414,598.4812 h -21.856 v -20.817 h 21.856 c 0,0 8.4061,0 8.4061,10.4085 0,10.4085 -8.4061,10.4085 -8.4061,10.4085 z m 20.3849,-4.9988 v -11.5951 c 0,0 -2.2257,-13.6463 -15.4795,-13.6463 h -40.8524 v 68.3518 h 12.7657 v -27.0209 h 22.3118 c 0,0 7.3291,2.0816 7.5052,9.9762 v 17.0447 h 12.9109 v -20.5942 c 0,0 -5e-4,-11.0921 -9.6087,-10.7705 0,0 10.2709,-4.0321 10.447,-11.7457 z" />
  </g>
</svg>
